<!DOCTYPE svg PUBLIC "-//W3C//DTD SVG 20010904//EN" "http://www.w3.org/TR/2001/REC-SVG-20010904/DTD/svg10.dtd">
<svg version="1.0" xmlns="http://www.w3.org/2000/svg" width="1500px" height="1600px" viewBox="0 0 15000 16000" preserveAspectRatio="xMidYMid meet">
<g id="layer1"  fill="#2b441f"  stroke="none">
 <path d="M6880 13610 c-30 -5 -89 -14 -130 -20 -41 -7 -79 -16 -85 -20 -5 -4 -29 -11 -52 -15 -24 -4 -45 -10 -48 -15 -3 -5 -23 -11 -45 -15 -22 -4 -40 -11 -40 -16 0 -5 -5 -9 -11 -9 -16 0 -103 -43 -107 -52 -2 -5 -9 -8 -16 -8 -7 0 -35 -16 -62 -35 -27 -19 -57 -40 -68 -47 -10 -7 -24 -17 -30 -23 -6 -5 -32 -27 -57 -47 -52 -42 -99 -114 -99 -152 0 -14 -5 -28 -11 -32 -7 -4 -9 -22 -5 -48 4 -22 11 -133 16 -246 5 -113 14 -221 19 -240 5 -19 14 -80 20 -135 12 -125 34 -267 42 -280 4 -5 10 -36 13 -67 4 -32 11 -60 16 -63 4 -2 11 -29 15 -60 3 -30 10 -57 15 -60 4 -3 11 -28 15 -55 4 -27 10 -52 15 -55 4 -3 11 -35 15 -72 4 -38 10 -72 15 -78 4 -5 10 -34 14 -64 4 -30 13 -63 20 -73 8 -11 11 -28 9 -39 -3 -11 0 -53 7 -92 9 -57 9 -93 -1 -172 -6 -55 -11 -114 -10 -132 0 -18 -4 -35 -9 -38 -6 -3 -10 -14 -10 -24 0 -33 -52 -191 -80 -242 -5 -9 -12 -33 -15 -53 -4 -20 -11 -36 -16 -36 -4 0 -11 -20 -15 -45 -3 -25 -10 -45 -14 -45 -4 0 -11 -21 -15 -47 -4 -27 -10 -52 -15 -58 -4 -5 -10 -23 -14 -40 -10 -44 -90 -215 -152 -328 -58 -104 -158 -323 -170 -372 -4 -16 -20 -57 -34 -90 -15 -33 -31 -76 -35 -95 -16 -78 -87 -264 -150 -395 -19 -38 -37 -83 -40 -100 -10 -47 -22 -90 -65 -235 -45 -148 -62 -191 -124 -325 -23 -49 -60 -130 -81 -180 -21 -49 -47 -110 -58 -134 -10 -25 -22 -72 -25 -104 -5 -60 -5 -60 19 -52 13 4 53 10 88 14 43 4 67 12 76 24 11 15 13 16 19 2 7 -18 40 -20 54 -2 5 6 18 39 27 72 10 33 24 76 31 95 8 19 20 62 28 95 22 100 47 175 86 270 21 50 48 122 60 162 11 39 27 76 34 82 18 15 36 67 96 271 28 96 57 189 65 205 69 156 135 334 135 362 0 8 9 33 21 56 11 23 34 78 50 122 16 44 38 92 48 106 11 14 26 47 35 74 9 26 28 73 42 104 14 31 35 76 46 101 12 25 29 63 39 85 35 75 87 210 94 245 4 19 24 78 45 130 54 137 58 152 92 290 17 69 38 148 48 175 21 59 67 207 77 250 5 20 10 -22 13 -120 6 -149 -1 -230 -36 -455 -8 -58 -17 -120 -19 -139 -8 -86 -17 -151 -30 -216 -7 -38 -21 -117 -30 -174 -9 -58 -20 -113 -26 -122 -5 -10 -20 -95 -34 -191 -25 -171 -45 -291 -65 -378 -6 -25 -14 -68 -18 -95 -5 -28 -11 -56 -15 -62 -4 -7 -10 -36 -13 -65 -6 -57 -51 -276 -60 -290 -3 -4 2 -8 10 -8 8 0 17 9 21 19 3 10 16 22 29 25 17 4 26 15 30 39 7 38 63 117 83 117 8 0 18 10 23 23 l9 22 0 -23 c1 -14 -11 -36 -29 -52 -16 -15 -30 -36 -30 -45 0 -9 -9 -19 -19 -22 -11 -3 -24 -18 -30 -34 -5 -16 -17 -32 -26 -35 -8 -3 -15 -13 -15 -21 0 -25 -29 -70 -48 -75 -14 -4 -21 -18 -26 -51 -4 -25 -16 -53 -26 -62 -11 -10 -20 -26 -20 -35 0 -31 -22 -80 -36 -80 -7 0 -16 -12 -20 -27 -12 -51 -32 -72 -75 -79 -30 -5 -43 -13 -49 -30 -5 -12 -28 -32 -52 -44 -94 -47 -108 -56 -108 -73 0 -10 -11 -22 -25 -27 -14 -5 -28 -17 -32 -26 -3 -8 -16 -20 -30 -25 -13 -5 -26 -16 -30 -26 -4 -10 -28 -38 -55 -64 -26 -26 -48 -54 -48 -64 0 -9 -9 -19 -20 -22 -12 -3 -26 -23 -36 -52 -10 -25 -25 -55 -35 -66 -10 -11 -21 -33 -25 -50 -4 -16 -16 -36 -26 -43 -10 -7 -18 -19 -18 -27 0 -33 -26 -42 -89 -32 -71 11 -88 7 -102 -30 l-11 -28 -18 23 c-22 27 -46 28 -59 4 -8 -15 -69 -42 -94 -42 -15 0 -34 56 -26 75 4 11 8 39 8 61 1 58 -28 94 -77 94 -20 0 -50 7 -67 16 -21 11 -45 14 -77 10 -48 -5 -53 -2 -48 34 3 23 -22 90 -34 90 -6 -1 -20 -15 -31 -33 -16 -25 -29 -33 -60 -37 -36 -5 -40 -8 -47 -44 -13 -59 -24 -69 -59 -49 -26 16 -30 16 -62 -2 -32 -17 -37 -17 -68 -3 -19 9 -44 19 -56 22 -12 4 -28 19 -35 34 -10 21 -21 28 -52 30 -21 2 -49 10 -61 18 -21 14 -24 13 -39 -8 -9 -12 -16 -31 -16 -41 0 -23 -28 -33 -52 -18 -14 9 -28 9 -51 2 -18 -6 -49 -13 -71 -16 -26 -4 -40 -12 -43 -25 -3 -11 -16 -20 -31 -22 -20 -2 -28 -11 -34 -35 -11 -41 -21 -41 -48 -2 -19 26 -21 38 -15 85 6 50 5 54 -14 54 -16 0 -20 -8 -23 -37 -2 -30 -8 -39 -24 -41 -11 -2 -27 4 -34 13 -16 19 -39 19 -60 0 -14 -13 -22 -12 -63 3 -26 10 -53 26 -60 36 -17 23 -123 66 -163 66 -19 0 -34 -6 -38 -15 -9 -24 -39 -17 -68 15 -23 26 -33 30 -81 30 -46 0 -55 3 -60 20 -7 28 -77 29 -77 1 0 -22 -29 -37 -35 -18 -2 6 -9 31 -15 55 -12 46 -27 53 -55 22 -10 -11 -33 -25 -50 -32 -27 -9 -34 -18 -39 -48 -7 -43 -24 -61 -58 -62 -47 0 -68 -9 -68 -26 0 -10 -7 -28 -16 -41 -14 -19 -14 -29 -5 -64 7 -23 13 -62 14 -86 l2 -44 -49 -17 c-87 -29 -71 -60 29 -60 58 0 61 -1 72 -31 10 -25 16 -30 40 -27 25 3 28 7 28 43 0 34 -3 40 -23 43 l-23 3 26 21 c14 11 28 19 30 17 1 -2 6 -30 10 -61 5 -40 4 -58 -4 -58 -18 0 -12 -29 9 -40 10 -6 22 -26 26 -45 7 -40 23 -44 49 -15 22 24 34 25 50 4 6 -9 29 -19 50 -23 32 -5 42 -13 63 -52 l26 -46 -22 -23 c-23 -25 -21 -66 6 -107 13 -21 12 -23 -11 -34 -21 -9 -30 -8 -53 9 -16 11 -53 28 -81 37 -29 9 -53 21 -53 26 0 5 -11 16 -25 25 -32 21 -75 6 -75 -25 0 -28 -14 -34 -84 -35 l-61 -1 -6 -90 c-10 -149 1 -178 56 -149 15 8 31 11 36 8 14 -8 10 -70 -7 -114 -15 -37 -15 -43 0 -74 18 -37 21 -82 7 -90 -5 -3 -11 1 -15 9 -3 8 -21 21 -40 29 -23 10 -38 24 -42 40 -4 18 -13 26 -28 26 -11 0 -32 3 -46 6 -20 4 -22 3 -10 -5 12 -9 11 -11 -8 -11 -13 0 -38 -14 -55 -32 -30 -31 -36 -32 -117 -35 -106 -3 -130 -9 -130 -31 0 -9 -9 -23 -20 -30 -23 -14 -27 -50 -6 -58 8 -3 25 2 39 10 35 23 59 11 55 -28 -4 -39 -38 -48 -61 -15 -20 27 -47 19 -47 -15 0 -28 -19 -76 -30 -76 -4 0 -15 17 -24 38 -9 20 -26 55 -38 77 -12 22 -24 63 -27 90 l-6 50 -38 -3 c-43 -3 -67 11 -67 40 0 23 -25 34 -44 19 -7 -6 -16 -8 -19 -4 -4 3 -13 0 -22 -7 -17 -14 -21 -100 -5 -100 6 0 10 -4 10 -8 0 -12 -57 -13 -88 -1 -20 8 -29 6 -47 -11 -14 -13 -35 -20 -63 -20 -58 0 -90 -17 -102 -56 -7 -19 -17 -34 -23 -34 -6 0 -21 -10 -33 -21 l-23 -21 -29 21 c-39 27 -59 19 -67 -30 -7 -43 -19 -49 -35 -19 -8 15 -21 20 -48 20 -41 0 -52 -6 -68 -35 -6 -11 -20 -21 -32 -23 -37 -6 -72 -48 -72 -87 l0 -37 38 7 c46 8 73 -13 46 -36 -13 -11 -21 -10 -48 5 -19 10 -49 18 -67 19 -34 2 -34 2 -31 -38 2 -26 10 -45 22 -54 11 -7 20 -21 20 -30 -1 -22 -29 -71 -30 -50 0 9 -19 32 -41 53 -39 35 -41 39 -35 77 4 27 2 46 -6 56 -7 8 -17 25 -23 37 -7 14 -20 21 -40 21 -28 0 -30 -2 -29 -40 1 -28 8 -43 23 -53 26 -18 28 -63 4 -84 -10 -9 -35 -21 -56 -28 -25 -8 -39 -19 -43 -35 -3 -13 -14 -31 -25 -41 -10 -9 -19 -21 -19 -26 0 -18 45 -69 76 -87 25 -15 33 -28 36 -53 4 -41 34 -50 58 -18 10 13 31 23 58 27 l42 6 0 -64 c0 -82 -7 -107 -32 -115 -23 -7 -58 -35 -58 -46 0 -4 21 -8 47 -10 l48 -3 3 -44 c3 -37 -1 -48 -19 -62 -47 -35 8 -52 71 -21 41 20 48 55 13 60 -28 4 -40 19 -48 63 -5 26 -2 39 9 48 9 8 16 26 16 41 0 31 18 50 49 53 20 1 21 5 15 44 -6 42 -5 43 29 58 19 8 37 20 39 26 2 7 30 14 62 17 58 5 58 4 97 -38 21 -23 39 -46 39 -51 0 -4 12 -14 27 -21 29 -14 40 -41 42 -100 1 -46 10 -68 26 -68 22 0 28 -19 15 -49 -14 -35 -47 -51 -106 -51 -32 0 -46 -5 -51 -16 -10 -26 10 -48 51 -57 29 -7 41 -18 57 -49 11 -21 27 -42 35 -45 9 -3 27 -17 40 -29 12 -13 27 -24 32 -24 5 0 12 -9 15 -20 6 -23 44 -40 91 -40 32 0 66 -24 66 -47 0 -6 6 -16 14 -22 11 -9 26 -1 72 44 58 55 73 57 74 12 0 -10 13 -26 30 -35 16 -9 34 -29 39 -44 7 -18 17 -28 30 -28 17 0 21 6 21 36 0 37 0 37 37 31 20 -4 41 -11 46 -16 15 -15 -8 -38 -44 -46 -31 -7 -59 -38 -59 -66 0 -9 6 -29 14 -45 19 -35 10 -81 -20 -115 -35 -37 -32 -84 6 -104 33 -17 32 -12 16 -129 0 -6 16 -18 36 -28 20 -10 42 -27 48 -38 15 -28 75 -28 90 0 6 11 17 20 25 20 13 0 21 -34 27 -120 4 -43 27 -47 46 -7 8 16 20 31 28 34 20 8 73 -16 85 -38 6 -12 21 -19 39 -19 33 0 64 42 75 103 6 31 14 40 42 52 19 8 39 12 44 9 14 -8 11 -47 -7 -72 -8 -12 -14 -36 -12 -54 2 -27 8 -33 36 -40 36 -10 50 -31 34 -51 -5 -6 -13 -31 -17 -54 -7 -42 -7 -42 32 -52 46 -13 57 -21 66 -44 11 -31 38 -33 61 -4 14 18 33 27 56 29 32 3 35 1 40 -32 8 -46 17 -59 45 -70 20 -8 24 -18 30 -75 4 -36 12 -68 17 -71 6 -4 21 6 33 22 l23 29 31 -23 c16 -12 42 -22 56 -22 21 0 25 -5 25 -30 0 -36 -12 -38 -33 -8 -27 41 -33 -5 -10 -73 23 -67 20 -73 -39 -71 -41 2 -43 0 -53 -61 -7 -44 -26 -55 -60 -37 -39 21 -54 7 -57 -52 -3 -51 -4 -52 -37 -59 -49 -10 -81 -30 -81 -50 0 -9 -11 -24 -25 -33 -35 -23 -41 -59 -17 -100 18 -31 19 -38 7 -73 -13 -37 -14 -38 -76 -46 -60 -8 -159 -57 -159 -79 0 -22 31 -65 54 -76 41 -18 33 -40 -16 -44 l-42 -3 -1 -42 c-1 -48 -12 -66 -26 -41 -24 43 -37 48 -74 30 -20 -10 -36 -27 -40 -42 -4 -14 -18 -37 -32 -52 -34 -36 -26 -72 22 -92 20 -9 44 -30 56 -51 25 -41 31 -43 44 -12 8 16 18 21 40 20 49 -4 78 -22 114 -68 34 -45 57 -55 79 -33 7 7 32 11 56 9 l45 -2 3 42 c3 39 7 45 45 65 48 25 56 21 70 -36 8 -32 13 -35 54 -40 36 -4 45 -9 47 -27 3 -17 -3 -26 -22 -33 -16 -6 -26 -17 -26 -29 0 -11 -7 -26 -15 -35 -20 -19 -20 -82 0 -90 8 -3 15 -12 15 -20 0 -8 21 -24 46 -36 25 -13 48 -29 51 -37 3 -7 19 -21 35 -29 25 -13 29 -20 25 -43 -11 -54 1 -71 48 -71 23 0 47 6 54 13 6 8 14 46 17 86 l7 72 46 -3 c45 -3 46 -4 49 -40 4 -48 23 -63 60 -50 19 6 35 6 46 0 26 -14 44 -3 64 39 9 21 22 41 27 45 18 13 72 9 85 -7 17 -21 37 -19 45 5 5 17 15 20 65 20 32 0 62 4 65 10 10 16 -57 90 -81 90 -33 0 -45 22 -38 69 7 47 29 55 44 16 5 -14 16 -25 25 -25 8 0 25 -10 36 -21 38 -38 132 -46 160 -13 15 19 2 34 -30 34 -36 0 -66 22 -58 44 12 31 97 11 97 -24 0 -16 7 -20 30 -20 28 0 30 2 30 40 0 26 5 40 13 40 16 -1 62 -41 70 -61 3 -11 23 -19 55 -23 48 -6 79 -25 65 -39 -3 -4 -28 -7 -54 -7 -42 0 -48 3 -51 22 -2 19 -10 23 -38 25 -20 1 -42 -2 -50 -7 -22 -14 0 -44 34 -48 26 -3 37 -34 16 -47 -16 -10 -12 -40 8 -59 11 -9 25 -34 32 -56 14 -43 5 -81 -32 -129 -23 -30 -16 -75 17 -111 13 -14 27 -37 30 -51 5 -20 15 -28 37 -33 47 -9 68 -7 68 7 0 19 78 80 94 74 7 -3 16 -17 20 -32 4 -14 19 -39 34 -55 23 -23 27 -36 24 -65 -7 -63 36 -83 56 -25 9 23 18 29 54 35 23 4 62 16 86 27 52 24 68 19 75 -24 7 -49 -11 -78 -63 -97 -40 -15 -45 -20 -45 -46 0 -29 2 -30 45 -30 38 0 46 -4 60 -28 13 -23 20 -26 45 -21 62 12 64 13 67 57 3 42 3 42 41 41 21 -1 40 -3 42 -6 2 -2 7 -23 11 -46 6 -38 4 -42 -13 -42 -46 0 -52 -55 -8 -66 44 -11 80 -1 83 24 8 57 72 41 72 -19 0 -29 22 -41 35 -19 9 14 99 12 113 -2 7 -7 12 -45 12 -99 0 -96 -5 -106 -63 -116 -30 -4 -40 -1 -61 22 -47 50 -73 10 -40 -61 18 -38 7 -64 -26 -64 -51 0 -48 -84 7 -155 24 -32 41 -45 58 -45 28 0 65 -32 65 -55 0 -27 27 -27 69 -1 49 32 68 32 97 5 27 -26 47 -20 71 19 17 28 19 28 52 15 28 -12 32 -18 26 -36 -15 -49 -11 -62 20 -65 23 -2 32 2 40 19 17 39 41 46 67 21 l24 -21 12 20 c15 23 13 27 -20 43 -17 9 -24 23 -28 56 -5 44 -6 45 -42 47 -28 2 -40 -3 -48 -16 -14 -27 -88 -33 -96 -8 -4 12 3 26 20 42 14 13 26 29 26 34 0 18 57 41 100 41 37 0 42 -3 55 -33 12 -29 18 -33 57 -35 34 -1 47 3 59 20 l17 21 16 -31 c9 -17 16 -48 16 -68 0 -67 76 -120 110 -79 16 20 29 19 53 -3 10 -9 35 -22 56 -27 32 -9 37 -16 45 -54 7 -33 6 -45 -4 -51 -8 -5 -18 -6 -24 -3 -20 13 3 -81 24 -97 30 -22 23 -61 -12 -78 -35 -16 -36 -40 -3 -47 14 -3 36 -7 49 -10 16 -3 25 -14 29 -34 7 -32 34 -64 48 -56 4 3 17 25 28 49 22 50 39 56 168 58 69 2 103 -10 103 -35 0 -5 11 -20 25 -33 21 -19 24 -27 15 -43 -5 -11 -10 -35 -10 -53 0 -58 36 -75 83 -38 29 23 34 19 43 -39 4 -23 10 -44 14 -46 14 -9 37 6 48 30 8 16 25 28 54 35 24 6 51 13 61 16 11 4 17 15 17 33 0 34 21 54 52 49 19 -2 23 -9 23 -40 0 -74 52 -80 70 -9 9 36 16 46 39 52 38 10 56 2 56 -28 0 -18 9 -28 38 -40 46 -19 44 -17 36 -37 -4 -10 -17 -16 -35 -16 -24 0 -29 -4 -29 -24 0 -55 -28 -75 -52 -36 -17 26 -55 26 -63 0 -3 -11 -15 -25 -26 -30 -23 -13 -25 -53 -3 -75 11 -11 13 -20 7 -26 -6 -6 -14 -4 -23 6 -18 22 -50 19 -50 -5 0 -18 10 -25 33 -21 4 0 7 -10 7 -24 0 -16 -6 -25 -15 -25 -8 0 -15 -4 -15 -10 0 -5 0 -13 0 -17 0 -5 8 -8 19 -9 11 -1 26 -4 34 -7 8 -3 23 3 33 14 25 28 57 24 77 -10 22 -38 21 -57 -3 -78 -28 -24 -25 -31 17 -42 31 -9 40 -8 58 8 11 10 30 24 43 30 14 7 22 21 22 36 0 23 -3 25 -53 25 -30 0 -56 2 -59 6 -3 3 0 26 6 52 l12 47 44 0 c44 0 44 0 53 -43 12 -63 32 -56 115 43 20 23 40 18 57 -14 18 -35 43 -45 79 -32 34 14 34 46 0 96 -31 47 -26 61 23 67 49 6 61 1 65 -25 4 -32 38 -32 83 -1 33 22 57 29 134 36 96 9 141 29 156 70 3 9 15 20 26 23 10 4 25 18 32 31 7 14 24 31 37 37 13 7 28 25 33 40 5 16 20 39 33 52 13 13 24 33 24 45 0 17 6 20 45 20 42 0 46 2 51 30 4 16 13 35 21 42 12 9 20 6 43 -19 23 -24 39 -31 86 -37 33 -4 61 -3 67 3 15 15 1 39 -25 43 -16 2 -24 11 -26 27 -2 14 -10 34 -18 46 -18 27 -10 35 33 35 35 0 107 -41 117 -66 7 -18 30 -18 45 0 6 7 38 16 71 20 64 7 78 17 55 36 -8 7 -15 23 -15 36 0 17 -7 25 -24 30 -35 8 -81 63 -95 112 -7 25 -18 42 -27 42 -25 0 -39 45 -24 80 12 29 42 41 54 21 3 -5 26 -12 51 -16 42 -6 48 -4 75 25 45 49 37 70 -28 70 -33 0 -40 6 -70 48 -28 40 -17 62 31 62 18 0 41 9 55 22 l23 23 19 -25 c11 -14 20 -34 22 -45 2 -12 12 -21 24 -23 18 -3 23 4 28 32 7 37 29 56 66 56 12 0 24 9 29 23 15 39 4 47 -71 47 -63 0 -73 3 -109 32 -35 28 -39 36 -39 79 0 38 4 48 20 52 11 3 24 16 29 29 12 31 37 52 53 42 6 -4 60 -8 120 -9 105 -2 108 -1 143 27 19 16 35 36 35 44 0 13 37 34 60 34 5 0 23 -13 39 -29 33 -32 66 -32 74 0 3 10 13 19 22 19 16 0 17 7 11 55 -6 52 -5 55 18 61 32 8 46 -2 46 -31 0 -16 9 -29 27 -38 l26 -14 -29 -14 c-17 -8 -30 -24 -32 -37 -2 -12 -7 -22 -12 -22 -5 0 -16 -14 -25 -30 -9 -18 -23 -30 -36 -30 -11 0 -22 -7 -25 -15 -10 -25 16 -45 57 -45 32 0 41 5 54 29 9 19 28 34 52 42 21 6 42 18 46 25 10 17 44 18 77 1 19 -10 24 -19 22 -40 -3 -23 0 -27 20 -27 13 0 33 7 44 15 10 8 36 15 56 15 60 0 88 18 88 56 0 46 -52 97 -90 89 -17 -4 -31 -1 -39 9 -7 8 -26 18 -42 21 -40 9 -44 21 -9 33 29 11 32 16 44 91 10 54 19 60 71 43 44 -14 50 -23 47 -65 -3 -32 17 -59 40 -51 32 10 108 -6 129 -27 31 -31 64 -39 130 -32 43 4 62 11 66 22 3 9 15 26 26 38 19 21 19 24 4 41 -24 26 -21 59 8 87 22 23 32 25 112 25 109 0 137 -12 141 -60 3 -50 -8 -61 -64 -62 -69 -2 -94 8 -94 37 0 25 -21 38 -45 29 -8 -4 -15 -16 -15 -28 0 -12 -5 -27 -12 -34 -9 -9 -7 -13 8 -17 56 -18 62 -24 69 -63 6 -39 7 -40 47 -39 35 2 43 7 58 35 23 43 50 73 61 67 16 -10 88 27 95 48 4 12 15 28 25 35 11 7 19 20 19 28 0 8 12 20 28 26 15 7 37 23 49 35 34 36 91 30 106 -10 9 -24 41 -18 45 8 2 11 11 28 20 38 12 13 13 20 4 29 -7 7 -12 21 -12 33 0 32 -20 45 -70 45 -34 0 -52 5 -65 20 -23 26 -80 37 -101 19 -14 -11 -18 -10 -30 6 -21 28 -17 44 11 55 14 5 30 21 37 35 11 26 30 31 95 26 27 -1 33 2 39 24 3 14 4 29 1 32 -4 3 -35 7 -70 8 -59 3 -66 1 -77 -21 -8 -14 -28 -28 -48 -34 -57 -15 -70 6 -27 46 21 19 25 32 25 77 0 68 12 79 83 76 29 -1 59 1 65 5 17 10 15 68 -3 92 -19 25 -19 80 0 88 8 3 15 11 15 18 0 7 9 19 20 26 11 7 20 21 20 32 0 16 -7 20 -36 20 -58 0 -75 14 -68 59 4 27 0 48 -15 77 -12 21 -21 49 -21 61 0 29 25 30 42 3 16 -25 45 -26 53 -2 3 11 23 33 45 50 40 33 74 38 145 23 27 -5 31 -11 35 -51 4 -35 9 -46 25 -48 11 -2 28 -11 37 -19 29 -26 48 -9 48 43 l0 46 53 -6 c50 -7 54 -5 83 26 17 18 34 41 37 50 4 10 13 18 22 18 14 0 16 4 19 30 1 6 -10 16 -24 23 -14 7 -26 22 -28 33 -2 14 -17 27 -43 37 -39 15 -40 17 -26 39 8 13 18 40 21 61 9 47 -17 63 -44 29 -23 -28 -91 -40 -109 -18 -15 17 -7 36 15 36 8 0 21 15 29 34 8 19 24 37 35 41 21 7 27 39 10 50 -5 3 -10 12 -10 20 0 14 -53 75 -67 75 -4 0 -20 6 -34 14 -23 12 -32 10 -82 -15 -54 -27 -56 -27 -73 -8 -9 10 -24 19 -33 19 -35 0 -45 16 -32 48 15 35 35 46 60 32 10 -5 27 -6 39 -3 19 5 22 13 22 54 0 28 -7 65 -14 84 -8 19 -12 35 -9 35 4 0 -3 10 -14 23 -12 12 -23 31 -25 42 -3 16 -11 20 -48 20 -43 0 -45 1 -48 31 -2 25 3 37 24 53 31 24 69 28 77 6 9 -23 76 -46 114 -39 31 6 93 -11 93 -25 0 -3 -7 -15 -15 -25 -24 -32 -17 -106 10 -106 7 0 20 11 29 24 13 20 27 26 76 32 33 4 63 11 66 16 3 5 -3 20 -15 32 -12 12 -21 29 -21 37 0 11 -17 18 -52 25 l-53 9 0 40 c0 40 0 40 39 40 37 0 40 -3 54 -41 15 -41 16 -42 75 -47 65 -6 96 2 129 33 32 30 65 26 83 -10 24 -46 45 -39 45 14 0 50 10 61 64 69 56 9 60 16 50 89 l-9 63 -42 3 c-32 2 -46 9 -54 24 -10 19 -8 25 15 43 42 34 27 78 -25 73 -16 -2 -24 2 -24 12 0 11 8 14 29 12 20 -2 37 5 57 24 27 26 30 26 47 11 39 -36 67 -15 48 36 -8 20 -7 33 1 46 7 10 12 38 11 61 -1 52 -20 62 -135 65 -95 3 -109 -6 -100 -59 5 -29 2 -35 -19 -45 -34 -15 -50 -14 -79 5 -16 10 -34 14 -53 9 -27 -6 -30 -4 -34 25 -5 36 10 57 48 66 31 8 71 -12 77 -38 7 -24 27 -15 27 12 0 38 -11 50 -49 50 -40 0 -81 23 -81 46 0 23 -18 16 -32 -13 -7 -16 -23 -29 -34 -31 -18 -3 -21 2 -19 28 1 17 7 36 13 42 7 7 12 23 12 36 0 20 3 22 14 13 7 -6 20 -9 28 -6 8 3 21 -1 28 -10 14 -17 47 -19 84 -5 21 8 26 16 26 43 0 26 -6 36 -25 45 -14 7 -28 19 -31 27 -4 10 -19 15 -44 15 -34 0 -70 23 -70 44 0 4 19 15 42 24 34 15 48 16 84 7 24 -6 46 -14 50 -18 11 -11 42 -8 63 5 10 6 26 8 36 4 14 -5 16 -14 11 -45 -3 -22 -3 -47 0 -55 9 -24 40 -19 63 11 20 24 23 25 47 12 25 -13 28 -12 61 26 33 38 34 39 40 16 5 -21 10 -23 51 -18 33 4 50 12 67 33 26 33 40 27 62 -27 8 -21 19 -39 24 -39 16 0 41 62 35 86 -7 26 17 81 43 101 32 23 85 25 140 4 50 -19 55 -19 87 -3 47 22 63 7 45 -44 -12 -33 -11 -38 7 -57 l21 -20 32 27 c20 17 38 25 48 20 41 -18 56 -10 59 30 4 43 -7 56 -48 56 -39 0 -70 27 -70 59 0 43 -21 55 -86 48 -99 -10 -162 35 -69 49 66 9 74 22 68 96 -4 54 -9 67 -34 88 -19 16 -29 35 -29 52 0 44 -19 72 -63 93 -29 14 -42 26 -42 40 0 17 8 20 49 23 40 3 51 -1 63 -17 15 -22 48 -28 58 -11 13 20 25 9 25 -23 0 -18 5 -38 12 -45 17 -17 103 -15 117 2 13 15 9 19 -34 41 -13 7 -21 23 -23 47 -3 33 0 38 22 44 15 3 43 -1 66 -10 57 -22 70 -20 81 14 12 34 20 36 54 14 34 -22 53 -12 60 33 11 67 15 71 36 31 26 -51 65 -70 113 -57 46 13 47 36 2 54 -34 14 -34 15 -21 50 14 41 40 70 73 80 17 5 22 2 22 -12 0 -10 5 -25 10 -33 8 -13 12 -12 25 8 11 15 26 22 48 22 18 0 38 4 46 9 20 13 4 31 -27 31 -55 0 -69 10 -76 49 -4 27 0 50 14 79 19 38 24 42 58 42 43 0 62 -14 62 -46 0 -56 27 -71 54 -29 13 20 25 25 56 25 l40 0 0 46 c0 38 10 75 27 93 2 3 19 -10 37 -28 19 -18 39 -30 45 -27 5 4 13 28 16 54 10 74 11 75 43 52 21 -16 40 -20 73 -18 43 3 44 4 47 41 3 32 9 40 43 58 22 11 39 23 37 27 -11 23 -27 59 -31 73 -3 8 -23 21 -46 27 -60 19 -81 71 -41 107 14 13 18 25 13 49 -3 17 -7 32 -8 34 -1 1 -18 -13 -39 -31 -29 -27 -36 -41 -36 -69 0 -20 -3 -43 -6 -52 -8 -21 -71 -59 -84 -51 -17 11 -11 37 10 42 16 4 20 14 20 44 0 33 -4 41 -25 49 -14 5 -25 15 -26 22 -1 7 -2 22 -3 32 0 11 -25 36 -58 58 -59 40 -73 69 -47 95 23 23 -2 33 -79 30 l-77 -3 -3 -44 c-6 -110 -18 -126 -84 -113 -39 8 -45 26 -22 68 17 31 17 36 1 72 -9 21 -17 47 -19 58 -3 17 -11 20 -49 20 -25 0 -53 6 -62 13 -10 9 -37 13 -74 11 l-58 -3 3 46 c3 43 2 46 -29 57 -44 15 -45 15 -60 -21 -16 -41 -26 -48 -60 -41 -32 6 -49 -17 -49 -70 0 -27 -7 -40 -39 -65 -22 -18 -45 -32 -50 -32 -6 0 -11 -10 -11 -23 0 -25 -17 -47 -37 -47 -15 0 -82 -45 -97 -66 -9 -12 -17 -13 -40 -5 l-28 11 19 33 c14 24 27 33 51 35 26 3 35 10 46 37 10 22 22 35 38 37 30 4 37 38 9 45 -12 3 -21 13 -21 24 0 31 -59 49 -135 42 -57 -5 -65 -9 -65 -26 0 -11 7 -28 16 -38 24 -27 11 -45 -37 -53 -37 -6 -48 -3 -83 22 -23 16 -46 40 -53 53 -13 26 -39 36 -91 38 -21 1 -40 10 -54 26 -16 18 -32 25 -59 25 -24 0 -41 6 -47 16 -16 28 -53 13 -66 -26 -16 -51 -41 -46 -42 8 -1 24 -6 48 -12 54 -15 15 -46 5 -50 -17 -6 -30 -22 -45 -47 -45 -20 0 -64 35 -54 44 15 13 52 26 73 26 34 0 34 24 1 46 -30 20 -68 14 -143 -21 -39 -18 -57 -33 -65 -55 -13 -33 -23 -36 -50 -15 -11 7 -25 11 -32 9 -7 -3 -16 -1 -20 5 -15 25 -33 10 -32 -25 1 -40 -26 -69 -53 -58 -66 28 -69 28 -105 11 -36 -17 -36 -17 -29 -67 6 -47 5 -50 -15 -50 -31 0 -141 52 -141 67 0 21 -31 43 -59 43 -16 0 -40 9 -54 20 -14 12 -40 25 -57 31 -16 6 -30 16 -30 23 0 7 -45 32 -100 56 -54 24 -101 51 -102 58 -3 16 -147 70 -230 87 -16 3 -28 12 -28 19 0 23 -29 28 -205 34 -93 3 -165 7 -159 9 9 3 9 14 -1 41 -7 20 -19 57 -26 82 -16 57 -59 169 -109 285 -21 50 -47 117 -58 150 -11 33 -40 107 -65 165 -43 100 -83 216 -79 233 1 4 -27 67 -63 141 -36 73 -65 139 -65 146 0 7 -11 38 -24 69 -13 31 -38 103 -56 161 -18 58 -41 123 -51 145 -27 60 -78 182 -105 255 -14 36 -45 106 -69 155 -24 50 -56 117 -70 150 -14 32 -32 66 -39 75 -15 16 -180 380 -191 420 -7 28 -18 52 -65 155 -18 39 -47 113 -65 165 -18 52 -56 151 -85 220 -104 248 -116 286 -127 408 -3 38 -1 67 5 75 6 7 14 43 18 80 4 37 10 67 14 67 7 0 18 61 25 145 2 22 11 83 19 135 9 52 21 131 28 175 6 44 15 82 19 85 3 3 10 34 13 70 4 36 11 74 16 85 9 19 19 89 40 280 4 44 9 122 9 173 1 51 6 103 12 114 6 11 7 23 2 27 -4 3 -10 22 -11 41 -5 67 -14 110 -23 110 -5 0 -9 6 -9 14 0 7 -6 19 -14 25 -7 6 -16 25 -20 42 -6 33 -46 77 -86 97 -32 15 -64 35 -70 44 -3 3 -18 10 -33 13 -15 4 -27 11 -27 15 0 5 -14 11 -31 15 -17 4 -42 13 -57 21 -15 8 -37 14 -49 14 -12 0 -24 4 -28 9 -3 6 -27 13 -53 16 -26 3 -54 10 -62 14 -9 5 -40 12 -70 16 -30 4 -61 12 -69 19 -17 13 -766 19 -851 6z m643 -285 c37 -4 67 -10 67 -15 0 -5 14 -11 30 -15 17 -4 30 -11 30 -16 0 -5 7 -9 15 -9 8 0 15 -4 15 -8 0 -5 -13 -7 -30 -4 -16 2 -30 10 -30 17 0 16 -58 22 -303 31 -137 5 -184 4 -203 -6 -13 -8 -27 -10 -31 -7 -3 4 1 7 10 7 8 0 17 5 19 11 4 12 229 29 303 23 22 -2 70 -6 108 -9z m585 -46 c2 -5 8 -9 14 -9 16 0 98 -42 98 -51 0 -3 9 -9 20 -12 14 -3 18 -10 14 -21 -4 -11 -10 -13 -18 -7 -6 5 -26 12 -43 16 -18 3 -33 10 -33 15 0 5 -13 11 -30 15 -16 4 -30 10 -30 15 0 12 -81 22 -173 21 -72 0 -79 1 -61 13 11 8 36 17 55 19 50 7 183 -3 187 -14z m-1323 -17 c29 -5 6 -9 -90 -13 -147 -7 -285 -26 -299 -40 -6 -5 -16 -9 -24 -9 -7 0 -34 -9 -59 -21 -25 -11 -47 -18 -50 -15 -3 3 3 9 13 13 10 4 25 13 32 20 7 7 20 13 28 13 8 0 14 4 14 9 0 5 17 12 38 16 20 4 42 11 48 16 29 24 236 30 349 11z m1132 -215 c19 1 34 -4 37 -13 3 -8 12 -14 21 -14 8 0 15 -4 15 -10 0 -5 6 -10 14 -10 7 0 25 -11 40 -25 18 -17 22 -25 12 -25 -8 0 -21 6 -28 14 -8 7 -30 17 -49 21 -19 4 -37 12 -40 17 -3 4 -59 13 -125 18 -65 6 -134 13 -153 16 -19 3 -37 1 -40 -4 -3 -5 -42 -11 -86 -14 -67 -5 -74 -4 -45 5 19 6 37 14 40 18 9 13 90 17 225 11 72 -4 144 -6 162 -5z m-872 -16 c39 -7 74 -19 78 -27 5 -8 24 -14 47 -14 32 0 40 -4 40 -17 0 -11 -3 -14 -8 -7 -6 10 -42 17 -242 45 -41 6 -149 9 -240 7 -149 -4 -159 -3 -102 8 34 6 66 14 69 18 11 11 281 1 358 -13z m-486 -35 c-2 -2 -22 -6 -44 -9 -28 -5 -34 -4 -20 3 19 8 73 14 64 6z m875 -225 c3 -5 33 -12 66 -16 33 -4 60 -11 60 -15 0 -4 15 -11 33 -14 38 -8 81 -36 55 -36 -9 0 -19 4 -22 9 -3 5 -32 12 -63 16 -32 4 -61 12 -64 17 -10 15 -264 22 -324 10 -54 -12 -111 -22 -82 -15 9 2 17 8 17 13 0 5 23 12 50 16 28 4 53 11 56 15 7 12 211 12 218 0z m-744 -37 c47 -8 93 -20 102 -25 10 -5 24 -9 32 -9 8 0 17 -4 20 -9 3 -4 -14 -4 -37 1 -114 25 -160 29 -252 25 -68 -2 -110 -9 -130 -20 -16 -9 -36 -17 -42 -17 -7 0 -13 -4 -13 -9 0 -5 -11 -12 -25 -15 -14 -4 -23 -11 -20 -16 3 -6 3 -10 -2 -10 -4 0 -19 -3 -33 -7 -25 -6 -25 -6 -5 13 36 33 84 64 99 64 8 0 17 4 21 9 3 6 27 13 53 16 26 3 56 10 67 15 30 13 71 12 165 -6z m1439 6 c9 -5 33 -12 54 -15 20 -3 37 -10 37 -15 0 -6 6 -10 14 -10 8 0 18 -5 22 -11 9 -15 -85 -2 -105 14 -21 18 -230 15 -240 -2 -5 -7 -14 -12 -22 -9 -16 5 52 38 79 38 12 0 23 4 27 9 7 12 112 12 134 1z m-710 -223 c41 -20 82 -114 90 -210 12 -133 -25 -225 -169 -424 -17 -24 -37 -60 -44 -80 l-13 -38 -13 25 c-7 14 -20 34 -29 45 -10 11 -26 40 -36 65 -10 25 -25 52 -32 61 -8 9 -19 34 -24 54 -6 21 -19 50 -29 64 -37 52 -54 241 -30 331 13 51 32 75 74 97 58 30 201 36 255 10z m549 -27 c50 -11 75 -25 120 -62 70 -59 81 -80 81 -143 1 -56 -22 -114 -75 -190 -59 -85 -78 -108 -137 -170 -31 -33 -57 -63 -57 -67 0 -12 -63 -98 -72 -98 -10 0 -15 23 -29 130 -6 47 -14 89 -19 95 -4 5 -11 31 -14 58 -4 26 -11 47 -15 47 -5 0 -11 19 -15 42 -4 23 -12 46 -19 50 -8 5 -12 36 -12 91 1 91 21 151 55 162 11 3 27 16 37 29 37 46 64 50 171 26z m-1293 -55 c29 -19 67 -56 84 -82 28 -42 31 -54 31 -123 0 -42 -8 -108 -18 -146 -18 -67 -150 -353 -163 -354 -4 0 -10 12 -14 27 -3 15 -17 37 -31 50 -13 12 -24 26 -24 31 0 5 -9 17 -20 27 -11 10 -20 24 -20 32 0 7 -4 13 -10 13 -5 0 -10 6 -10 14 0 8 -6 21 -12 28 -18 19 -58 102 -58 121 0 8 -5 17 -12 19 -8 3 -12 42 -12 129 -1 106 2 131 19 165 37 73 56 84 142 84 70 0 80 -3 128 -35z m251 -843 c6 -4 18 -21 27 -37 8 -17 25 -39 37 -50 21 -19 21 -25 19 -230 -1 -116 4 -250 10 -300 12 -90 9 -162 -9 -226 -6 -19 -10 -96 -10 -172 0 -109 -14 -308 -23 -337 -1 -3 3 -6 8 -8 6 -2 13 7 17 20 5 13 6 5 3 -21 -3 -24 -14 -54 -25 -68 -10 -13 -21 -40 -25 -61 -4 -25 -13 -41 -28 -47 -15 -7 -24 -22 -28 -46 -3 -21 -18 -51 -32 -69 -15 -17 -27 -40 -27 -50 0 -11 -9 -24 -19 -30 -11 -5 -25 -27 -32 -47 -12 -38 -35 -74 -77 -120 -13 -13 -25 -38 -29 -53 -3 -16 -16 -36 -29 -45 -13 -8 -24 -24 -24 -35 0 -10 -13 -28 -29 -39 -16 -12 -32 -34 -36 -49 -7 -32 -53 -85 -87 -101 l-23 -12 23 17 c13 10 22 27 22 42 0 14 10 36 22 49 14 15 25 43 29 76 17 121 38 247 42 254 3 5 11 47 17 93 7 47 14 94 16 105 2 11 8 43 13 70 6 28 10 79 10 115 1 76 27 315 42 380 6 25 11 63 13 85 1 22 8 65 14 95 12 60 17 95 32 245 6 55 14 114 19 130 5 17 12 71 15 120 5 96 29 242 48 305 9 29 20 41 43 48 39 13 38 13 51 4z m761 -14 c4 -7 8 -29 9 -48 1 -19 6 -80 11 -135 6 -55 8 -130 5 -167 -4 -61 -3 -68 14 -68 18 0 19 6 12 102 -17 225 -20 283 -15 278 7 -8 87 -202 87 -212 0 -5 20 -55 44 -111 44 -103 91 -233 142 -387 15 -47 52 -138 81 -202 29 -65 53 -123 53 -129 0 -6 9 -28 20 -48 10 -20 33 -74 50 -121 17 -47 43 -114 57 -150 15 -36 39 -99 54 -140 43 -118 85 -221 108 -265 11 -22 28 -72 37 -110 9 -39 22 -86 29 -105 18 -50 71 -223 94 -305 23 -84 58 -197 76 -245 19 -48 29 -92 26 -112 -1 -10 5 -32 13 -50 13 -28 60 -169 108 -320 6 -21 14 -38 18 -38 4 0 12 -19 19 -42 7 -24 20 -51 28 -60 13 -15 13 -16 -5 -11 -21 5 -57 48 -82 98 -9 19 -33 38 -64 53 -26 12 -50 31 -53 41 -4 16 -21 21 -91 31 -48 6 -101 17 -117 24 -17 7 -46 17 -65 20 -61 13 -69 17 -75 35 -3 11 -19 21 -39 25 -53 10 -153 64 -159 86 -3 11 -18 25 -34 31 -34 13 -83 58 -83 76 0 8 -11 24 -24 36 -23 21 -24 31 -35 227 -8 149 -16 224 -31 275 -11 38 -19 85 -19 105 l2 35 6 -35 c4 -23 12 -36 25 -38 17 -4 18 2 12 100 -4 56 -11 130 -16 163 -5 33 -11 78 -15 100 -12 81 -36 221 -45 255 -5 19 -11 49 -14 65 -2 17 -25 131 -50 255 -24 124 -52 268 -62 320 -9 52 -23 111 -31 130 -18 45 -57 205 -73 300 -7 41 -16 89 -21 105 -4 17 -17 75 -29 129 -20 100 -17 126 15 126 6 0 20 9 30 20 20 23 50 26 62 8z m327 -74 c31 -34 166 -346 166 -384 0 -6 6 -26 14 -43 24 -53 47 -108 76 -187 67 -179 146 -366 220 -515 43 -88 99 -212 125 -275 26 -63 60 -134 76 -158 16 -24 29 -56 29 -71 0 -28 25 -115 50 -176 7 -16 18 -43 25 -60 7 -16 25 -66 39 -110 15 -44 33 -91 40 -105 8 -14 23 -52 34 -85 12 -33 28 -80 38 -105 9 -25 31 -99 49 -165 41 -148 65 -214 104 -289 17 -32 31 -68 31 -80 0 -23 55 -183 90 -260 13 -28 36 -68 52 -90 18 -25 27 -48 24 -60 -3 -11 5 -43 18 -71 21 -44 42 -101 50 -130 13 -52 38 -120 47 -131 8 -10 39 -15 103 -16 61 -1 73 -3 36 -5 -30 -2 -78 -14 -106 -27 -77 -36 -288 -52 -321 -24 -21 17 -15 48 12 60 30 14 32 34 5 43 -11 3 -20 14 -20 24 0 25 -30 49 -69 57 -33 7 -61 36 -61 64 0 9 -14 27 -30 42 -17 14 -33 40 -36 57 -4 16 -15 38 -25 47 -13 11 -19 29 -18 53 1 20 3 27 6 16 2 -11 6 -30 9 -42 3 -15 12 -23 24 -23 11 0 20 -5 20 -10 0 -6 13 -38 29 -73 16 -34 32 -70 35 -79 4 -13 16 -18 46 -18 34 0 42 -4 50 -25 5 -14 16 -25 25 -25 23 0 15 44 -34 185 -26 76 -43 146 -47 190 -6 74 -68 287 -115 390 -15 34 -58 175 -88 290 -30 115 -66 227 -82 257 -5 9 -12 32 -14 50 -10 69 -13 76 -65 223 -12 33 -40 114 -62 180 -62 183 -126 333 -203 475 -13 25 -40 81 -60 125 -20 44 -54 115 -76 158 -75 151 -113 244 -205 512 -34 101 -41 123 -64 205 -6 25 -21 70 -32 100 -11 30 -22 74 -25 98 -4 37 -3 42 16 42 11 0 31 -12 45 -26z m-464 -437 c0 -16 7 -52 14 -80 8 -29 17 -76 20 -105 3 -29 9 -58 13 -65 4 -7 13 -59 19 -117 7 -58 24 -159 39 -225 14 -66 30 -136 34 -155 4 -19 13 -45 20 -58 7 -13 14 -41 16 -63 3 -21 9 -48 15 -58 5 -11 13 -59 16 -108 4 -48 10 -93 15 -99 5 -6 11 -35 15 -65 5 -43 11 -57 28 -65 14 -6 22 -20 24 -43 2 -19 14 -48 28 -64 17 -21 24 -40 23 -70 0 -32 -2 -37 -9 -22 -4 12 -15 27 -24 34 -9 7 -16 21 -16 31 0 9 -11 38 -25 63 -13 25 -29 65 -35 89 -7 23 -23 55 -36 71 -13 16 -24 33 -24 39 0 5 -8 22 -19 36 -10 15 -25 47 -32 71 -8 26 -20 46 -31 49 -10 2 -18 12 -18 21 0 9 -13 35 -30 58 -22 30 -30 51 -29 79 1 22 -4 68 -10 104 -16 97 -31 398 -30 615 1 169 2 187 14 160 8 -16 14 -43 15 -58z m-500 -687 c13 -8 13 -12 1 -32 -8 -13 -20 -34 -28 -48 -12 -23 -13 -21 -13 33 0 58 8 68 40 47z m401 -497 c7 -21 23 -46 36 -56 12 -10 23 -26 23 -36 0 -10 11 -34 24 -54 14 -20 28 -57 32 -82 5 -36 12 -48 30 -55 15 -6 24 -18 25 -32 1 -42 7 -60 28 -82 23 -24 30 -100 10 -112 -19 -11 -86 65 -100 113 -7 28 -19 48 -30 50 -9 3 -19 17 -22 32 -3 16 -17 42 -31 59 -15 16 -26 39 -26 50 0 31 -21 72 -36 72 -29 0 -31 122 -4 155 19 23 27 18 41 -22z m-207 -486 c18 -38 33 -91 38 -137 5 -41 14 -97 19 -125 20 -96 22 -125 9 -125 -6 0 -14 9 -17 20 -3 11 -13 20 -23 20 -27 0 -37 19 -44 89 -5 43 -16 76 -33 102 -23 35 -25 46 -21 102 5 58 24 117 37 117 3 0 19 -28 35 -63z m-427 -103 c3 -9 0 -20 -7 -24 -9 -6 -15 -43 -19 -114 -4 -63 -11 -110 -18 -118 -7 -6 -13 -20 -13 -30 0 -12 -11 -19 -34 -24 -19 -3 -42 -14 -51 -25 -10 -10 -38 -21 -62 -25 -25 -4 -53 -14 -62 -23 -9 -9 -27 -14 -40 -13 -20 3 -22 8 -17 34 7 35 23 58 40 58 7 0 18 16 25 35 7 19 16 35 20 35 4 0 16 18 26 40 10 22 26 42 37 46 11 3 24 18 31 32 11 26 44 75 77 114 18 22 59 23 67 2z m701 -45 c23 -33 42 -65 42 -70 0 -5 14 -23 30 -41 17 -17 30 -39 30 -49 0 -10 11 -26 24 -34 14 -9 29 -30 35 -46 5 -16 15 -29 20 -29 18 0 59 -84 65 -135 3 -27 10 -197 16 -377 9 -298 12 -331 30 -363 22 -39 18 -55 -18 -88 -14 -13 -32 -17 -63 -15 -41 3 -44 5 -59 48 -9 25 -25 60 -37 78 -11 19 -27 55 -33 80 -7 26 -19 54 -25 62 -8 9 -15 64 -18 140 -5 107 -9 132 -31 177 -17 34 -26 70 -26 100 0 27 -11 113 -24 193 -24 147 -43 400 -31 420 13 21 32 8 73 -51z m-443 -445 c23 -6 37 -38 50 -123 5 -31 13 -45 26 -48 11 -3 22 -17 26 -32 3 -14 16 -44 29 -66 12 -22 26 -57 29 -78 4 -21 15 -43 24 -50 22 -16 77 -132 86 -182 4 -22 11 -46 17 -52 7 -9 7 -17 0 -25 -5 -7 -12 -94 -16 -193 -3 -99 -10 -183 -14 -187 -4 -3 -25 -8 -47 -10 -43 -3 -62 -32 -30 -45 32 -12 97 -83 91 -99 -3 -9 -6 -26 -6 -40 0 -17 -7 -25 -25 -30 -46 -11 -71 2 -84 46 -6 22 -17 40 -23 40 -16 0 -58 -41 -58 -56 0 -22 -26 -35 -53 -25 -29 11 -37 37 -43 143 -2 43 -11 113 -20 155 -22 114 -33 377 -27 681 2 147 7 273 9 281 2 7 11 10 20 7 9 -3 26 -9 39 -12z m-356 -31 c7 -18 13 -142 15 -353 4 -275 7 -341 24 -426 22 -111 39 -341 28 -396 -5 -29 -16 -41 -58 -68 -29 -17 -68 -35 -88 -38 -19 -3 -40 -12 -46 -20 -7 -10 -22 -12 -58 -7 -45 7 -47 9 -41 34 11 41 51 55 75 26 18 -21 23 -19 44 18 11 17 30 41 44 52 22 19 23 25 15 65 -8 43 -10 45 -58 57 -28 6 -59 14 -70 17 -30 9 -45 -6 -53 -55 -7 -38 -11 -44 -31 -41 -23 4 -95 -39 -110 -65 -9 -16 -87 -37 -108 -29 -7 3 -17 16 -22 30 -8 19 -19 25 -65 30 -60 8 -75 19 -56 41 6 7 15 71 21 142 5 70 12 135 16 143 3 8 10 38 14 65 31 195 42 239 58 251 10 8 16 34 19 80 3 47 10 75 22 89 9 11 18 27 18 35 0 8 6 44 13 79 9 46 18 65 31 69 10 2 24 24 33 52 l16 48 63 11 c34 6 74 11 88 11 14 0 37 9 51 20 14 11 46 23 71 26 24 4 47 13 50 20 8 22 23 16 35 -13z m1326 -137 c6 -7 35 -25 65 -39 30 -15 82 -43 115 -62 38 -21 80 -36 115 -40 30 -4 73 -15 95 -26 22 -10 65 -23 95 -30 30 -6 60 -17 65 -23 6 -7 25 -20 43 -30 19 -10 32 -24 32 -36 0 -10 15 -34 33 -54 18 -19 46 -59 61 -90 15 -30 33 -57 40 -59 16 -6 27 -103 15 -134 -10 -27 -22 -29 -43 -8 -8 8 -22 15 -31 15 -9 0 -23 -7 -31 -15 -22 -21 -33 -19 -44 10 -5 14 -13 26 -17 26 -67 11 -113 -2 -113 -32 0 -36 -24 -15 -38 34 -17 61 -43 76 -74 43 -13 -14 -41 -31 -63 -38 -40 -13 -40 -13 -37 -59 4 -49 -11 -66 -39 -48 -8 5 -34 9 -58 9 -26 0 -52 6 -61 15 -10 9 -41 20 -70 24 -39 6 -58 15 -75 37 -20 25 -23 42 -29 193 -4 91 -11 170 -16 175 -6 6 -10 30 -10 56 0 25 -5 74 -10 109 -10 56 -9 66 7 83 19 21 59 18 78 -6z m-2001 -102 c21 -8 22 -80 1 -92 -11 -6 -19 -36 -26 -103 -6 -52 -19 -128 -30 -169 -11 -41 -22 -111 -24 -155 -9 -142 -13 -158 -44 -179 -30 -21 -56 -99 -44 -133 5 -15 3 -16 -8 -5 -7 6 -36 12 -64 12 -44 0 -54 4 -81 33 -17 17 -36 42 -43 55 -6 12 -20 22 -30 22 -10 0 -24 7 -31 15 -15 18 6 82 32 96 10 5 18 16 18 24 0 16 -15 17 -65 6 -29 -6 -30 -9 -35 -66 -4 -52 -8 -60 -25 -60 -15 0 -20 6 -18 25 7 91 12 123 22 133 6 6 11 21 11 33 0 13 4 26 10 29 5 3 21 30 35 60 13 30 33 59 44 64 11 6 23 25 27 43 6 31 73 108 93 108 5 0 12 11 15 24 3 14 18 29 36 36 16 7 30 19 30 27 0 7 7 16 15 19 8 3 17 14 20 23 6 20 45 41 74 41 10 0 29 9 42 20 28 23 24 21 43 14z m-2956 -338 l24 -13 -26 -16 c-14 -9 -29 -17 -35 -17 -15 0 -22 32 -10 46 14 17 18 17 47 0z m-130 -29 c17 -13 12 -47 -10 -60 -25 -16 -68 7 -68 36 0 44 38 56 78 24z m1076 -23 c14 -14 14 -18 1 -44 -8 -16 -18 -31 -23 -34 -17 -10 -34 13 -39 53 -5 39 -4 41 20 41 14 0 33 -7 41 -16z m815 -49 c27 -13 41 -33 41 -56 0 -6 -7 -6 -18 0 -27 14 -68 2 -81 -25 -6 -13 -15 -24 -20 -24 -18 0 -93 78 -86 89 10 17 39 13 58 -9 21 -25 36 -25 44 -2 7 19 23 42 30 42 2 0 17 -7 32 -15z m169 -24 c-2 -20 -8 -26 -28 -26 -30 0 -40 33 -15 51 25 19 47 6 43 -25z m-1883 -106 c0 -26 -29 -31 -61 -10 -32 21 -24 32 23 31 31 -1 38 -5 38 -21z m395 -3 c0 -4 -9 -13 -20 -20 -17 -10 -21 -10 -26 3 -4 8 -3 22 0 30 4 13 10 14 26 5 11 -6 20 -14 20 -18z m817 12 c8 -20 -13 -42 -27 -28 -12 12 -3 44 11 44 5 0 12 -7 16 -16z m-215 -59 c6 -14 17 -25 23 -25 7 0 20 -9 30 -20 15 -16 15 -22 5 -35 -16 -19 -43 -19 -79 0 -22 11 -30 23 -33 52 -7 55 32 75 54 28z m656 -37 c9 -9 22 -23 29 -30 7 -7 19 -19 27 -25 13 -11 13 -18 1 -52 -7 -22 -11 -49 -8 -61 8 -29 -23 -60 -61 -60 -20 0 -36 -7 -44 -20 -13 -22 -66 -28 -78 -9 -9 16 15 29 55 29 28 0 32 3 28 19 -7 27 11 51 38 51 33 0 38 12 23 59 -11 36 -16 40 -55 46 -24 3 -48 3 -54 0 -17 -11 -59 4 -59 20 0 9 11 21 25 27 14 6 32 22 40 35 16 23 16 23 46 6 17 -10 38 -26 47 -35z m3988 4 c14 -34 14 -38 -3 -49 -33 -25 -77 2 -86 54 -6 30 -4 32 26 35 42 5 45 3 63 -40z m-4419 -36 c-5 -16 -36 -20 -52 -6 -18 15 -20 57 -2 63 15 5 59 -41 54 -57z m4567 34 c59 0 74 -26 30 -55 -17 -11 -24 -23 -21 -35 3 -13 -2 -20 -17 -24 -11 -3 -25 -15 -31 -28 -7 -15 -19 -23 -35 -23 -16 0 -28 -8 -35 -23 -11 -26 -23 -28 -32 -6 -9 23 14 63 47 82 34 19 40 51 11 59 -31 8 -32 30 -4 52 19 15 30 18 43 11 10 -6 30 -10 44 -10z m-5405 -37 c-6 -7 -18 -13 -26 -13 -20 0 -28 27 -13 45 11 14 15 14 31 -1 14 -13 16 -20 8 -31z m1716 -23 c0 -38 -3 -45 -20 -45 -22 0 -31 30 -20 72 4 16 12 23 23 21 13 -3 17 -14 17 -48z m3198 11 c4 -17 9 -18 57 -8 58 11 75 1 61 -37 -10 -26 -62 -34 -81 -12 -15 20 -33 20 -87 1 -32 -11 -49 -12 -72 -4 -68 24 -25 55 110 78 4 1 9 -7 12 -18z m1517 4 c113 -14 127 -17 143 -40 12 -16 28 -25 46 -25 16 0 40 -11 53 -24 14 -13 44 -26 67 -30 28 -4 46 -14 57 -31 9 -14 24 -25 34 -25 9 0 28 -8 41 -18 13 -10 45 -26 71 -36 27 -10 51 -24 55 -31 5 -7 24 -20 43 -29 51 -24 123 -70 127 -82 6 -18 -45 -34 -106 -34 -84 0 -121 9 -121 30 0 9 -12 27 -26 41 l-26 24 -19 -24 c-10 -13 -19 -29 -19 -36 0 -7 -11 -20 -25 -29 -20 -13 -25 -25 -25 -59 0 -79 4 -84 75 -91 59 -6 65 -5 90 20 29 29 49 28 53 -4 2 -16 -4 -25 -22 -32 -13 -5 -29 -18 -35 -28 -8 -15 -26 -20 -77 -25 -71 -7 -94 1 -94 33 0 11 -19 30 -45 47 -24 15 -48 40 -53 54 -9 23 -17 27 -72 32 -34 4 -66 4 -71 1 -14 -8 -11 -37 6 -61 18 -26 9 -34 -45 -43 -26 -4 -39 -13 -48 -34 -12 -24 -18 -27 -45 -22 -16 3 -36 15 -44 26 -8 11 -20 20 -27 20 -21 0 -91 60 -96 83 -3 12 -23 31 -45 42 -21 11 -57 37 -79 58 -22 20 -48 37 -57 37 -10 0 -31 11 -47 25 -17 14 -37 25 -47 25 -25 0 -55 19 -55 35 0 8 -25 26 -55 40 -66 32 -135 108 -119 132 5 9 30 22 54 28 25 7 71 22 102 34 35 13 84 21 125 22 38 1 100 5 138 9 110 11 132 11 265 -5z m-6140 -10 c16 -19 -1 -63 -27 -71 -10 -3 -30 -12 -44 -19 -22 -12 -29 -12 -47 1 -19 13 -28 13 -57 3 -40 -15 -54 -6 -37 21 7 11 12 26 12 34 0 8 5 18 12 22 41 25 169 31 188 9z m1680 -30 c0 -19 -4 -35 -9 -35 -11 0 -24 48 -16 60 13 21 25 8 25 -25z m2350 22 c26 -20 50 -65 50 -91 0 -51 -23 -75 -35 -36 -4 11 -20 23 -38 28 -28 7 -32 13 -35 46 -2 21 -1 44 2 52 7 17 36 18 56 1z m-3834 -42 c15 -44 -2 -55 -31 -21 -31 36 -32 53 -2 52 15 -1 25 -10 33 -31z m5066 -39 c24 -25 54 -59 68 -75 14 -17 37 -38 53 -46 15 -9 27 -24 27 -36 0 -11 8 -23 18 -26 18 -7 34 -20 89 -73 17 -16 35 -30 40 -30 4 0 19 -9 33 -19 23 -19 24 -20 7 -39 -9 -10 -17 -26 -17 -36 0 -26 -19 -56 -35 -56 -18 0 -23 -24 -27 -122 -4 -93 -14 -107 -50 -73 -29 27 -48 31 -65 14 -5 -5 -37 -9 -69 -7 -50 3 -60 6 -69 26 -7 16 -18 22 -41 22 -17 0 -37 7 -44 15 -7 8 -22 16 -34 16 -18 2 -17 2 4 6 14 3 33 12 42 20 20 18 53 4 63 -27 8 -26 27 -26 43 1 10 16 21 20 50 17 30 -2 38 1 49 22 7 14 10 34 8 45 -12 63 -16 75 -26 75 -6 0 -22 14 -36 30 -13 17 -32 30 -41 30 -24 0 -52 -31 -52 -58 0 -24 -2 -24 -49 -18 -30 4 -59 2 -75 -5 -19 -9 -29 -9 -39 0 -23 18 -27 76 -10 120 13 33 21 40 52 46 73 13 73 12 66 63 -11 81 -15 92 -40 102 -21 8 -25 16 -25 50 0 31 4 40 18 40 9 0 26 7 36 15 28 21 31 20 78 -29z m-852 3 c0 -38 -93 -40 -98 -2 -3 19 2 22 35 25 50 4 63 0 63 -23z m-4870 1 c0 -5 -7 -10 -15 -10 -8 0 -15 5 -15 10 0 6 7 10 15 10 8 0 15 -4 15 -10z m620 -88 c20 -16 21 -23 13 -62 -7 -34 -15 -48 -35 -58 -20 -9 -29 -23 -34 -50 -10 -55 -19 -67 -59 -79 -47 -15 -52 -2 -25 61 11 28 20 70 20 100 0 54 10 76 45 94 29 16 50 14 75 -6z m-620 -18 c0 -8 -9 -14 -20 -14 -22 0 -26 10 -8 28 13 13 28 7 28 -14z m4177 7 c20 -2 33 -57 18 -78 -13 -17 -15 -16 -25 15 -7 17 -18 32 -25 32 -16 0 -37 25 -29 33 4 4 16 5 28 2 12 -2 26 -4 33 -4z m-2181 -36 c8 -33 -11 -55 -46 -55 -35 0 -54 22 -46 55 5 21 12 25 46 25 34 0 41 -4 46 -25z m-767 -36 c-12 -23 -42 -25 -60 -3 -11 14 -10 19 10 35 22 18 25 18 42 3 14 -13 16 -21 8 -35z m3749 18 c2 -19 -1 -27 -13 -27 -19 0 -30 24 -21 46 9 23 31 11 34 -19z m279 18 c22 -15 53 -68 53 -90 0 -7 -6 -18 -14 -24 -12 -10 -18 -7 -31 18 -9 19 -23 31 -36 31 -24 0 -41 38 -27 63 11 21 27 22 55 2z m-5131 -9 c18 -13 26 -13 60 -1 52 19 89 18 105 -1 17 -21 1 -48 -32 -52 -13 -2 -29 -12 -36 -21 -13 -19 -33 -19 -135 1 -45 8 -58 15 -59 29 -1 11 -2 24 -3 31 -1 11 31 25 64 27 9 1 25 -5 36 -13z m329 -5 c6 -19 -9 -71 -21 -71 -19 0 -74 44 -74 60 0 21 13 28 57 29 23 1 33 -4 38 -18z m7459 6 c17 -13 17 -15 -6 -42 -31 -35 -58 -29 -58 13 0 16 3 32 7 35 10 11 38 8 57 -6z m-5655 -70 c8 -11 6 -20 -9 -37 l-20 -23 0 30 c0 25 6 43 15 43 2 0 8 -6 14 -13z m6128 0 c2 -2 1 -22 -3 -43 -5 -36 -8 -39 -37 -38 -27 1 -32 6 -40 34 -13 50 -3 64 39 57 20 -4 38 -8 41 -10z m-5307 -47 c27 -11 37 -19 25 -19 -11 -1 -35 -10 -52 -21 l-33 -20 -16 25 c-13 20 -14 28 -4 40 16 19 24 18 80 -5z m2381 10 c10 -6 19 -21 19 -33 0 -13 5 -28 10 -33 19 -19 -15 -35 -67 -32 -48 3 -48 3 -51 42 -2 21 -1 44 2 52 6 16 59 19 87 4z m2377 -12 c2 -12 -3 -18 -15 -18 -26 0 -47 16 -38 29 10 18 49 9 53 -11z m1360 6 c17 -12 22 -24 20 -47 -3 -28 -6 -32 -28 -29 -14 2 -42 -2 -63 -9 -30 -10 -40 -10 -50 0 -9 10 -6 18 18 37 17 13 26 24 21 24 -5 0 -1 9 9 20 22 24 43 25 73 4z m152 1 c17 -21 -1 -69 -28 -73 -17 -3 -22 3 -27 32 -4 19 -4 39 0 45 9 16 41 13 55 -4z m-7240 -37 c0 -4 11 -10 25 -14 47 -12 24 -44 -31 -44 -63 0 -88 42 -47 77 26 23 28 23 40 7 7 -10 13 -21 13 -26z m776 -14 c7 -33 16 -50 28 -52 23 -5 17 -46 -8 -50 -10 -2 -23 3 -28 13 -6 9 -30 25 -55 36 -39 16 -44 23 -39 42 3 12 6 30 6 39 0 11 10 18 33 21 49 6 51 4 63 -49z m2369 9 c-7 -21 -20 -39 -29 -41 -18 -4 -19 1 -10 47 5 24 12 31 29 31 22 0 22 -1 10 -37z m-1791 -9 c24 -9 20 -44 -4 -44 -15 0 -20 7 -20 25 0 27 1 28 24 19z m3953 -14 c10 -11 22 -20 29 -20 6 0 19 -9 28 -19 15 -17 16 -25 6 -55 -13 -41 -36 -57 -65 -46 -11 4 -47 6 -80 3 -75 -5 -89 3 -78 47 11 42 26 48 41 15 13 -28 29 -31 57 -11 19 14 19 15 2 50 -9 20 -17 41 -17 46 0 18 60 10 77 -10z m-7410 -10 c4 -17 14 -20 54 -20 38 0 52 4 61 20 18 28 29 25 68 -15 30 -31 32 -37 19 -50 -10 -11 -43 -17 -102 -20 l-87 -5 -14 35 c-8 19 -22 35 -30 35 -9 0 -16 6 -16 13 0 32 39 38 47 7z m1049 9 c10 -16 -15 -29 -58 -29 -26 0 -38 4 -38 14 0 8 6 17 13 19 23 10 76 7 83 -4z m763 -3 c10 -11 10 -20 1 -36 -12 -22 -27 -17 -30 10 -6 41 7 52 29 26z m6189 -3 c2 -8 -6 -13 -22 -13 -25 0 -33 10 -19 24 10 10 36 3 41 -11z m415 -20 c30 -9 32 -11 32 -58 0 -47 1 -50 30 -55 26 -4 30 -10 33 -41 2 -21 -3 -40 -10 -47 -19 -16 -76 23 -84 57 -4 14 -15 43 -25 63 -11 21 -18 56 -18 80 1 24 3 36 6 27 2 -9 18 -21 36 -26z m1190 22 c7 -16 -8 -29 -23 -20 -15 9 -12 35 4 35 8 0 16 -7 19 -15z m-8349 -34 c8 -12 -3 -41 -15 -41 -5 0 -9 11 -9 25 0 25 14 34 24 16z m2114 -3 c7 -7 12 -20 12 -29 0 -9 9 -19 20 -22 12 -3 20 -14 20 -26 0 -29 -26 -27 -46 4 -13 20 -21 23 -47 19 -18 -4 -44 -15 -59 -25 -58 -41 -75 -15 -33 51 24 38 28 40 73 40 26 0 53 -5 60 -12z m2763 -8 c10 -6 19 -17 19 -25 0 -14 -29 -35 -49 -35 -6 0 -11 16 -11 35 0 37 9 42 41 25z m-797 -46 c27 -10 18 -34 -15 -41 -19 -4 -34 -14 -37 -25 -7 -30 -72 -37 -72 -7 0 5 11 9 24 9 17 0 34 12 52 35 14 19 28 35 29 35 2 0 10 -3 19 -6z m162 -54 c78 -1 100 -52 36 -83 -51 -24 -70 -15 -78 39 -3 24 -10 44 -15 44 -5 0 -9 8 -9 18 1 16 1 16 14 0 8 -12 27 -18 52 -18z m3619 4 c22 -10 39 -28 48 -52 34 -84 -20 -81 -108 7 -19 18 -22 27 -14 42 12 23 31 24 74 3z m-9178 -6 c20 -25 24 -84 8 -98 -18 -15 -13 -55 11 -81 13 -15 12 -17 -13 -22 -35 -7 -40 -3 -48 33 -6 29 -10 32 -37 34 -7 1 -16 8 -20 16 -9 20 -9 92 0 106 16 24 83 32 99 12z m885 -6 c16 -16 1 -45 -35 -69 -31 -21 -35 -22 -92 -8 -59 13 -88 36 -83 65 4 18 46 26 60 12 6 -6 19 -5 36 5 29 15 97 12 114 -5z m7481 -6 c10 -8 17 -26 17 -45 0 -34 -10 -39 -30 -16 -7 8 -18 15 -25 15 -19 0 -38 28 -31 45 7 18 45 19 69 1z m-2879 -18 c3 -13 6 -33 6 -45 0 -12 4 -23 8 -25 5 -1 12 -24 15 -50 6 -43 5 -48 -13 -48 -11 0 -20 7 -20 15 0 8 -8 19 -17 24 -10 5 -26 25 -37 45 -18 33 -18 37 -2 71 20 40 50 47 60 13z m906 -8 c0 -16 -4 -30 -10 -30 -5 0 -10 14 -10 30 0 17 5 30 10 30 6 0 10 -13 10 -30z m1810 -15 c17 -9 30 -19 30 -24 0 -13 -22 -27 -52 -35 -15 -3 -29 -15 -33 -25 -7 -25 -37 -32 -81 -19 -19 5 -41 7 -47 5 -15 -5 -47 10 -47 23 0 5 8 11 18 14 10 3 23 19 29 35 10 27 16 30 64 34 30 2 62 4 72 5 10 1 31 -5 47 -13z m1429 -2 c17 -10 31 -21 31 -25 0 -9 -71 -29 -82 -22 -10 6 -11 48 -1 57 10 10 19 9 52 -10z m-10031 -25 c2 -9 -6 -19 -17 -23 -12 -3 -26 -15 -31 -26 -6 -10 -17 -19 -24 -19 -15 0 -31 64 -20 81 10 17 88 6 92 -13z m1680 10 c15 -15 -3 -38 -29 -38 -22 0 -31 13 -23 34 7 19 35 21 52 4z m3326 -23 c49 -46 45 -69 -11 -73 -25 -2 -48 -11 -58 -23 -20 -21 -55 -25 -73 -7 -30 30 0 88 59 119 46 23 41 24 83 -16z m3040 29 c9 -3 16 -12 16 -20 0 -10 -13 -14 -45 -14 -43 0 -58 14 -38 33 8 9 46 9 67 1z m-5944 -13 c0 -5 -16 -9 -35 -8 -19 1 -35 5 -35 9 0 4 16 8 35 8 19 0 35 -4 35 -9z m5248 -3 c-3 -7 -18 -14 -34 -16 -19 -2 -33 -11 -39 -24 -16 -34 -39 -43 -81 -32 -21 5 -39 14 -41 20 -5 16 69 44 115 44 23 0 42 5 42 10 0 6 9 10 21 10 12 0 19 -5 17 -12z m-6663 -19 c40 -24 41 -40 2 -53 -31 -11 -57 6 -57 39 0 19 7 35 16 35 2 0 19 -10 39 -21z m-553 -14 c14 -30 22 -31 49 -4 25 25 51 21 64 -9 5 -12 15 -22 21 -22 20 0 24 -39 6 -48 -26 -13 -123 -2 -129 14 -3 8 -10 14 -17 14 -31 0 -86 23 -86 35 0 14 43 42 68 44 7 1 18 -10 24 -24z m2125 -4 c6 -10 15 -35 18 -55 l7 -36 -45 0 c-24 0 -49 6 -55 13 -19 22 -25 66 -12 82 18 22 73 19 87 -4z m-736 -12 c16 -16 31 -20 64 -17 37 3 45 0 49 -17 9 -31 8 -32 -23 -44 -36 -15 -99 0 -126 29 -10 11 -23 20 -30 20 -20 0 -48 27 -41 38 12 21 84 14 107 -9z m6617 9 c22 -22 14 -48 -13 -48 -18 0 -28 7 -35 26 -6 14 -10 27 -10 30 0 9 47 3 58 -8z m-3706 -48 c2 -27 -1 -35 -16 -38 -32 -7 -40 13 -21 53 19 42 33 36 37 -15z m2648 35 c0 -8 -7 -15 -15 -15 -8 0 -15 7 -15 15 0 8 7 15 15 15 8 0 15 -7 15 -15z m-5955 -41 c18 -18 7 -39 -25 -49 -11 -3 -22 -14 -25 -25 -12 -38 -65 -31 -65 9 0 17 30 48 66 69 25 15 30 15 49 -4z m1419 10 c19 -7 21 -57 4 -71 -7 -6 -25 -13 -39 -17 -22 -5 -28 -2 -33 17 -11 41 -6 55 22 65 15 6 28 11 29 11 1 1 8 -2 17 -5z m2651 -25 c11 -16 1 -20 -35 -12 -29 5 -31 7 -15 14 29 11 43 10 50 -2z m2450 -9 c-3 -5 -13 -6 -21 -3 -12 4 -13 8 -3 14 15 9 32 2 24 -11z m1124 -24 c39 -20 42 -78 5 -94 -13 -7 -29 -24 -34 -38 -8 -21 -15 -25 -33 -20 -12 3 -27 6 -33 6 -39 0 -40 134 0 150 32 13 64 12 95 -4z m-6395 -2 c24 -9 20 -21 -20 -60 -39 -40 -71 -40 -60 -1 3 12 6 28 6 35 0 7 10 17 23 22 28 11 32 11 51 4z m2918 -6 c20 -17 31 -75 16 -84 -6 -4 -19 3 -29 14 -9 12 -22 22 -27 22 -15 0 -42 29 -42 46 0 18 60 19 82 2z m-4622 -7 c0 -22 -13 -41 -29 -41 -9 0 -23 -6 -30 -12 -19 -19 -2 23 18 44 17 18 41 23 41 9z m9415 -21 c11 -12 31 -20 51 -20 23 0 37 -6 44 -19 14 -27 -1 -34 -45 -22 -20 5 -51 7 -70 4 -43 -7 -54 13 -30 51 21 31 27 32 50 6z m-8631 -27 c10 -25 -8 -36 -45 -28 l-33 7 23 19 c29 23 47 24 55 2z m7124 5 c7 -7 12 -21 12 -32 -1 -27 -34 -71 -48 -62 -13 8 -26 81 -17 96 8 14 38 13 53 -2z m-4804 -44 c17 -45 -8 -80 -39 -54 -18 15 -19 42 -3 58 17 17 35 15 42 -4z m639 -4 c-3 -11 -14 -20 -24 -20 -23 0 -15 27 9 33 10 3 18 5 19 6 0 0 -1 -8 -4 -19z m4037 -1 c0 -11 -4 -17 -10 -14 -5 3 -10 13 -10 21 0 8 5 14 10 14 6 0 10 -9 10 -21z m-3235 0 c4 -5 4 -21 1 -35 -8 -31 -52 -34 -61 -4 -12 36 41 70 60 39z m2091 -13 c11 -44 -16 -63 -36 -25 -9 15 -8 24 1 35 17 20 28 17 35 -10z m654 4 c10 -17 1 -52 -18 -67 -19 -16 -68 -17 -77 -2 -4 6 -34 8 -81 5 -72 -5 -74 -4 -80 20 -3 13 -4 31 0 39 6 16 51 21 60 6 3 -5 23 -2 43 5 44 17 141 13 153 -6z m-8330 -20 c5 -22 12 -25 48 -25 43 0 69 -15 58 -34 -4 -6 -36 -11 -72 -11 -51 0 -68 4 -84 20 -11 11 -24 20 -30 20 -5 0 -10 4 -10 9 0 5 -3 16 -6 24 -6 17 16 26 61 24 22 -2 31 -8 35 -27z m2814 14 c10 -25 7 -82 -4 -89 -6 -4 -26 -1 -46 5 -32 11 -34 14 -20 29 8 9 19 28 25 44 12 30 35 36 45 11z m2641 -29 c0 -35 -3 -39 -36 -50 -50 -18 -64 -7 -52 41 7 32 14 40 38 45 45 10 50 6 50 -36z m669 36 c9 -14 -4 -41 -20 -41 -8 0 -14 8 -14 18 0 29 22 43 34 23z m-334 -16 c0 -8 -4 -15 -9 -15 -13 0 -22 16 -14 24 11 11 23 6 23 -9z m-4825 -39 c33 -8 28 -27 -9 -37 -43 -12 -58 -2 -50 35 9 44 16 52 25 29 4 -11 19 -23 34 -27z m7041 -23 c-6 -16 -32 -17 -41 -2 -4 5 -1 24 5 40 l13 29 14 -27 c7 -14 11 -33 9 -40z m-7178 9 c3 -17 -2 -25 -18 -29 -11 -3 -27 -21 -35 -39 -17 -41 -50 -46 -59 -10 -8 31 1 54 24 61 9 3 26 15 36 26 23 25 48 21 52 -9z m5026 7 c8 -12 25 -27 38 -33 17 -9 24 -22 28 -55 5 -42 7 -45 45 -55 53 -15 56 -47 5 -57 -42 -9 -47 -6 -55 31 -4 17 -13 30 -21 30 -8 0 -22 9 -31 20 -18 21 -58 27 -68 10 -10 -16 -43 -11 -63 10 -16 17 -25 18 -70 11 -45 -7 -54 -6 -62 9 -10 18 5 40 27 40 7 0 17 9 23 20 15 28 26 25 39 -10 12 -36 13 -36 68 -9 28 14 43 27 43 40 0 26 35 25 54 -2z m-2872 -7 c7 -11 23 -24 36 -31 43 -23 21 -59 -32 -53 -24 3 -36 10 -39 24 -3 10 -19 24 -36 31 -34 13 -41 33 -13 40 39 11 71 6 84 -11z m3476 -5 c3 -13 -3 -17 -27 -17 -36 0 -48 15 -24 29 25 15 47 9 51 -12z m1435 -13 c-4 -11 -15 -13 -42 -8 -42 7 -61 21 -40 28 51 18 93 8 82 -20z m-8658 10 c45 -30 19 -84 -40 -84 -20 0 -30 46 -16 76 13 28 23 30 56 8z m2074 2 c12 -14 5 -66 -8 -66 -9 0 -40 68 -33 75 10 9 29 5 41 -9z m5045 5 c3 -4 3 -11 0 -14 -8 -8 -34 3 -34 14 0 11 27 12 34 0z m-6904 -23 c36 -21 39 -22 57 -5 24 21 86 22 107 1 19 -18 20 -28 5 -55 -9 -18 -17 -20 -59 -14 -43 6 -49 4 -55 -14 -8 -26 -27 -27 -50 -1 -11 12 -31 20 -50 20 -18 0 -43 9 -56 19 l-24 19 24 26 c30 32 51 33 101 4z m1986 -14 c7 -29 -2 -44 -27 -44 -19 0 -26 30 -13 64 8 21 33 9 40 -20z m1822 24 c16 -16 15 -55 -2 -61 -18 -7 -36 12 -36 38 0 35 17 44 38 23z m-1403 -24 c16 -12 18 -18 7 -34 -18 -29 -15 -44 13 -70 14 -13 25 -28 25 -32 0 -5 7 -16 15 -24 19 -19 19 -44 1 -44 -7 0 -29 7 -48 15 -30 12 -36 20 -42 56 l-7 42 -67 -7 c-84 -8 -165 7 -215 40 -53 35 -47 58 15 62 44 3 47 2 50 -25 4 -39 44 -45 58 -9 8 22 16 26 47 26 21 0 45 5 53 10 22 14 72 11 95 -6z m7672 -7 c8 -9 -39 -76 -59 -83 -23 -7 -46 10 -29 20 6 4 11 23 11 43 0 35 0 36 36 30 20 -3 38 -8 41 -10z m-5767 -6 c0 -4 -5 -22 -11 -40 -9 -26 -16 -31 -44 -31 -32 0 -49 -13 -70 -52 -13 -27 -27 -26 -42 3 -6 13 -22 31 -35 40 l-23 18 28 10 c33 13 73 13 102 2 26 -11 45 5 45 35 0 19 5 24 25 24 14 0 25 -4 25 -9z m3142 -41 c3 -35 3 -35 -41 -38 -60 -4 -75 13 -29 32 21 9 38 24 41 38 9 31 26 12 29 -32z m-4198 8 c29 -56 16 -71 -39 -46 -18 8 -25 19 -25 38 0 51 40 56 64 8z m-1627 -19 l28 -10 -32 -16 c-19 -9 -33 -24 -35 -36 -2 -17 -13 -24 -50 -31 -49 -10 -78 1 -78 29 0 12 57 45 78 45 5 0 12 7 16 15 6 18 34 19 73 4z m1192 -8 c6 -10 22 -22 37 -25 25 -7 26 -10 20 -49 -4 -25 -14 -48 -26 -56 -13 -9 -20 -25 -20 -47 0 -40 11 -43 38 -9 28 35 48 32 56 -10 4 -20 4 -40 1 -45 -9 -15 -38 -12 -63 6 -21 15 -25 15 -42 -1 -20 -18 -42 -15 -78 13 -18 14 -27 37 -38 93 -8 41 -14 77 -14 81 0 11 84 66 102 67 10 1 22 -7 27 -18z m1921 -9 c0 -17 87 -32 119 -21 47 17 61 6 61 -44 0 -54 -12 -66 -65 -64 -33 2 -41 6 -43 25 -2 13 -16 29 -35 38 -55 28 -87 74 -52 74 8 0 15 -4 15 -8z m-4202 -35 c4 -30 -21 -48 -40 -29 -8 8 -8 18 0 38 15 31 36 27 40 -9z m1386 -20 c-8 -22 -23 -22 -40 1 -18 23 -17 30 4 35 23 5 44 -16 36 -36z m8352 29 c18 -14 18 -17 4 -43 -20 -36 -42 -40 -80 -12 -31 23 -40 53 -17 62 25 11 74 7 93 -7z m-4255 -44 c3 -24 2 -45 -3 -48 -19 -12 -44 8 -55 43 -13 42 -4 55 32 51 15 -2 21 -13 26 -46z m2537 18 c2 -14 10 -32 18 -41 13 -15 13 -17 -1 -23 -34 -12 -52 -5 -83 33 -36 45 -28 64 28 59 29 -2 36 -7 38 -28z m1277 11 c0 -8 -8 -19 -17 -25 -22 -13 -44 5 -34 29 7 20 51 16 51 -4z m-135 -6 c0 -8 -4 -15 -10 -15 -5 0 -10 7 -10 15 0 8 5 15 10 15 6 0 10 -7 10 -15z m-6100 -45 c6 -11 26 -22 45 -26 20 -3 40 -15 46 -26 8 -15 4 -25 -24 -53 -50 -50 -73 -47 -83 13 -8 43 -12 47 -39 50 -53 5 -75 12 -75 25 0 25 24 37 72 37 37 0 50 -4 58 -20z m2304 5 c9 -24 -2 -40 -35 -52 -26 -10 -34 -9 -51 6 -22 21 -17 27 37 47 41 16 42 16 49 -1z m996 -16 c0 -12 -7 -19 -18 -19 -28 0 -34 11 -16 31 19 21 34 16 34 -12z m-6080 2 c0 -12 -20 -25 -27 -18 -7 7 6 27 18 27 5 0 9 -4 9 -9z m-693 -21 c15 0 41 -8 56 -19 23 -15 26 -20 13 -30 -8 -6 -17 -23 -20 -36 -8 -31 -38 -33 -67 -4 -17 17 -28 19 -62 14 -23 -4 -50 -14 -60 -23 -27 -24 -43 -2 -31 45 8 33 15 39 59 54 33 11 55 14 67 8 9 -5 29 -9 45 -9z m651 -15 c2 -2 -1 -18 -6 -36 -16 -63 -91 -74 -106 -15 -8 33 1 54 27 59 20 4 78 -2 85 -8z m1550 -45 c2 -31 10 -62 18 -71 17 -19 13 -24 -33 -34 -27 -5 -33 -3 -33 10 0 17 -37 54 -55 55 -21 0 -65 52 -65 76 0 25 0 25 83 22 l82 -3 3 -55z m318 47 c9 -8 15 -81 9 -104 -4 -19 -9 -21 -37 -12 -18 5 -50 9 -71 9 -43 0 -61 25 -34 45 10 7 17 19 17 28 0 31 31 49 73 44 21 -3 41 -7 43 -10z m5446 -30 c28 -33 38 -96 19 -126 -11 -18 -31 -5 -31 19 0 11 -12 26 -30 35 -16 8 -34 24 -40 36 -6 11 -23 24 -37 30 -30 11 -25 19 20 35 43 15 67 8 99 -29z m1230 26 c2 -10 2 -28 0 -41 -4 -20 -8 -22 -41 -16 -57 10 -76 35 -49 62 19 19 86 15 90 -5z m-3033 -7 c9 -10 8 -16 -4 -26 -19 -16 -41 1 -32 24 8 20 21 20 36 2z m380 0 c6 -4 11 -15 11 -26 0 -11 11 -22 30 -29 34 -11 37 -22 14 -42 -13 -10 -19 -10 -36 0 -31 19 -97 5 -108 -24 -21 -56 -63 -35 -58 29 2 34 7 42 26 44 13 2 25 10 28 18 2 8 6 21 9 29 4 15 60 15 84 1z m3207 -22 c-5 -13 -10 -14 -18 -6 -6 6 -8 18 -4 28 5 13 10 14 18 6 6 -6 8 -18 4 -28z m-8882 17 c8 -12 -21 -34 -34 -26 -17 11 -11 35 9 35 11 0 22 -4 25 -9z m4026 -5 c0 -21 -21 -31 -30 -15 -5 7 -6 17 -4 21 9 14 34 9 34 -6z m5298 -28 c-3 -40 -5 -43 -42 -50 -47 -10 -68 3 -48 30 7 9 15 25 18 34 5 15 23 23 62 27 9 1 12 -11 10 -41z m-2458 2 c20 0 29 -9 45 -44 23 -49 22 -62 -7 -77 -15 -8 -24 -7 -39 7 -10 9 -19 25 -19 34 0 10 -9 24 -19 31 -15 10 -18 21 -14 42 4 20 9 25 16 18 6 -6 22 -11 37 -11z m-8311 -19 c18 -32 -9 -45 -76 -35 -71 11 -81 36 -18 45 71 11 84 9 94 -10z m3523 -6 c33 -39 41 -45 65 -45 42 0 20 -24 -28 -31 -38 -6 -47 -3 -64 16 -11 12 -28 25 -37 28 -25 9 -22 35 5 40 41 8 46 7 59 -8z m4212 9 c24 -9 19 -33 -9 -44 -23 -9 -37 -50 -17 -50 12 0 32 -46 32 -73 0 -13 -5 -28 -12 -35 -21 -21 -38 7 -38 64 0 29 -5 56 -11 59 -9 6 -4 57 8 78 5 9 26 9 47 1z m2376 -13 c5 -11 22 -26 38 -33 25 -13 27 -17 24 -68 -4 -70 -10 -90 -27 -90 -19 0 -27 28 -14 52 9 16 7 24 -9 40 -26 27 -89 16 -104 -18 -6 -13 -23 -26 -39 -29 -18 -4 -29 -14 -31 -28 -2 -12 -12 -23 -22 -25 -35 -7 -166 10 -179 22 -7 7 -22 18 -35 25 -12 6 -22 21 -22 31 0 29 75 29 90 0 8 -15 21 -20 54 -20 48 0 58 8 75 62 11 32 18 39 54 49 23 6 49 17 57 24 14 12 39 21 67 24 7 0 17 -8 23 -18z m443 -3 c6 -8 7 -23 4 -32 -6 -14 -10 -14 -42 5 -19 12 -35 23 -35 25 0 7 44 23 54 20 5 -1 14 -9 19 -18z m-3989 -4 c9 -23 4 -25 -39 -16 -54 11 -58 32 -7 32 28 0 42 -5 46 -16z m-5179 -49 c0 -23 -5 -30 -19 -30 -28 0 -43 29 -26 50 21 25 45 14 45 -20z m719 12 c16 -11 16 -15 1 -50 -19 -45 -39 -44 -43 2 -6 57 8 73 42 48z m2756 -3 c11 -12 11 -18 -2 -31 -19 -18 -38 -10 -38 16 0 33 20 40 40 15z m-3810 -18 c0 -7 16 -20 36 -29 30 -15 34 -20 23 -33 -8 -10 -26 -14 -58 -12 -39 3 -46 6 -49 26 -4 27 24 75 38 67 6 -4 10 -12 10 -19z m2760 4 c0 -11 -6 -20 -14 -20 -18 0 -29 16 -21 30 11 18 35 11 35 -10z m388 -22 c-2 -31 -8 -44 -20 -46 -15 -3 -18 4 -18 42 0 40 3 46 21 46 18 0 20 -5 17 -42z m3382 -59 c0 -61 -17 -76 -59 -54 -17 8 -31 22 -31 29 0 8 -3 21 -6 30 -4 10 8 28 32 50 l39 35 12 -22 c7 -12 12 -43 13 -68z m-3595 55 c31 17 33 17 68 -7 l37 -25 -28 -10 c-15 -6 -64 -11 -109 -11 -97 1 -119 15 -77 48 26 20 28 20 52 5 24 -16 28 -16 57 0z m2765 -30 c0 -3 -10 -18 -22 -34 -23 -32 -38 -26 -38 16 0 30 19 45 42 33 10 -5 18 -12 18 -15z m2008 20 c14 -4 22 -13 20 -23 -3 -12 -13 -15 -43 -13 -47 4 -49 6 -42 27 7 16 27 19 65 9z m-5453 -15 c10 -15 -1 -23 -20 -15 -9 3 -13 10 -10 16 8 13 22 13 30 -1z m5905 -16 c0 -19 -50 -64 -68 -61 -44 8 -7 73 41 73 15 0 27 -5 27 -12z m-8272 -28 c19 -17 1 -50 -39 -70 -45 -24 -69 -12 -69 34 0 20 5 42 12 49 14 14 76 6 96 -13z m6239 5 c2 0 3 -6 3 -13 0 -13 -50 -47 -69 -47 -6 0 -17 12 -23 26 -17 36 9 56 55 43 18 -5 33 -9 34 -9z m-170 -42 c-19 -120 -18 -117 -49 -123 -18 -4 -35 -2 -46 7 -46 37 -52 44 -52 63 0 33 20 45 73 45 40 0 50 3 54 20 9 33 26 23 20 -12z m-6610 -42 c-4 -11 -20 -16 -47 -16 -52 0 -52 24 0 51 34 19 35 19 44 0 5 -11 6 -27 3 -35z m9657 28 c17 -17 21 -44 7 -44 -5 0 -16 -3 -24 -6 -23 -9 -49 24 -37 47 13 23 33 24 54 3z m-5210 0 c24 -9 19 -23 -11 -35 -20 -7 -35 -7 -53 1 -24 11 -24 12 -5 26 20 15 44 18 69 8z m3425 -3 c21 -14 3 -31 -33 -31 -39 0 -50 8 -35 27 13 15 47 17 68 4z m-6825 -47 c9 -8 16 -21 16 -29 0 -7 11 -16 25 -19 24 -6 26 -11 23 -53 -3 -45 -1 -48 30 -63 35 -17 52 -36 52 -59 0 -12 -3 -12 -12 -3 -7 7 -28 12 -47 12 -45 1 -67 17 -86 64 -9 21 -36 57 -60 82 -62 62 -60 84 6 84 21 0 45 -7 53 -16z m2881 -11 c12 -27 50 -31 60 -5 6 16 8 16 21 -3 8 -11 29 -25 47 -31 21 -7 32 -17 32 -30 0 -17 -7 -19 -79 -17 -43 0 -81 6 -85 11 -3 5 -30 20 -58 32 -59 25 -66 41 -25 57 41 17 76 11 87 -14z m-2280 6 c4 -5 4 -21 1 -35 -6 -23 -10 -24 -83 -24 -61 0 -78 -3 -89 -17 -10 -15 -15 -16 -26 -5 -10 10 -9 14 9 18 12 4 28 19 35 35 12 27 48 41 48 19 0 -15 32 -12 54 5 23 18 42 19 51 4z m3800 -2 c10 -8 15 -19 11 -25 -9 -15 -56 -15 -76 -2 -13 9 -12 12 4 25 24 19 37 19 61 2z m3971 -12 c41 -32 89 -34 97 -4 3 13 10 18 17 14 8 -5 5 -14 -10 -30 -24 -26 -18 -52 16 -66 20 -7 24 -16 24 -50 0 -26 -7 -50 -17 -61 -14 -16 -15 -23 -5 -38 7 -11 12 -26 12 -34 0 -17 75 -46 118 -46 22 0 32 -5 32 -15 0 -27 -28 -85 -45 -91 -9 -4 -15 -19 -15 -40 0 -37 -25 -58 -63 -52 -17 2 -23 11 -25 38 -5 54 -17 61 -96 60 -146 -3 -162 -1 -181 20 -10 11 -29 20 -42 20 -17 0 -23 6 -23 23 0 46 47 63 71 26 19 -27 92 -38 117 -16 9 8 28 17 42 19 31 4 38 37 15 71 -13 20 -14 29 -4 51 11 23 9 29 -9 49 -12 13 -22 28 -22 33 0 6 -14 23 -30 39 l-30 29 -30 -23 c-17 -12 -35 -19 -40 -16 -17 11 -11 44 10 55 11 6 20 16 20 23 0 19 21 37 44 37 10 0 34 -11 52 -25z m343 16 c9 -6 11 -18 7 -35 -7 -29 -27 -34 -46 -11 -7 8 -21 15 -31 15 -28 0 -23 15 9 27 35 14 44 15 61 4z m111 -25 c5 -14 22 -32 37 -40 23 -12 25 -16 12 -21 -9 -3 -34 -5 -55 -3 -29 2 -38 7 -35 18 2 8 6 27 9 43 5 34 19 35 32 3z m-8710 4 c12 -8 9 -10 -12 -10 -16 0 -28 5 -28 10 0 13 20 13 40 0z m4793 -37 c4 -2 7 -14 7 -27 0 -12 5 -27 12 -34 8 -8 9 -12 1 -12 -6 0 -13 5 -15 11 -2 6 -25 13 -52 16 -50 6 -67 23 -46 48 9 11 23 14 49 9 20 -4 39 -9 44 -11z m4107 -3 c0 -27 -28 -39 -69 -28 -37 10 -37 11 4 32 41 22 65 20 65 -4z m-5325 -70 c0 -19 -6 -26 -25 -28 -14 -2 -30 -8 -36 -13 -15 -12 -24 -1 -24 32 0 22 5 28 28 32 47 7 57 3 57 -23z m383 18 c18 -18 15 -75 -5 -82 -20 -8 -27 -1 -41 41 -9 27 -8 34 6 43 22 12 26 12 40 -2z m408 -16 c6 -12 19 -29 29 -36 11 -8 16 -20 12 -30 -7 -18 -32 -22 -42 -6 -13 20 -44 9 -64 -23 -25 -42 -64 -61 -92 -47 -10 6 -19 19 -19 28 0 10 -7 27 -15 38 -8 10 -14 35 -14 54 0 32 1 33 10 11 8 -21 13 -23 52 -17 25 4 52 17 67 32 30 29 60 28 76 -4z m2198 22 c21 -8 20 -27 -2 -54 -11 -14 -23 -19 -35 -15 -20 8 -23 45 -5 63 14 14 20 14 42 6z m1205 -3 c22 -14 6 -38 -31 -44 -37 -6 -64 12 -55 37 7 18 62 22 86 7z m131 -16 c10 -26 0 -68 -19 -79 -17 -11 -48 12 -53 39 -11 54 53 90 72 40z m148 13 c6 -7 12 -29 14 -48 3 -33 2 -35 -37 -41 -60 -10 -106 21 -51 35 15 4 28 17 34 36 12 32 23 37 40 18z m453 2 c26 -14 24 -36 -3 -44 -27 -7 -53 16 -45 38 7 19 21 20 48 6z m-342 -59 c14 -26 -12 -50 -34 -31 -11 9 -12 17 -4 31 5 10 14 19 19 19 5 0 14 -9 19 -19z m-4469 -19 c0 -10 9 -25 20 -35 24 -20 18 -37 -13 -37 -48 1 -70 47 -39 82 17 20 32 15 32 -10z m1255 7 c10 -15 -1 -23 -20 -15 -9 3 -13 10 -10 16 8 13 22 13 30 -1z m-6280 -47 c7 -19 -18 -47 -34 -38 -12 8 -15 49 -5 59 9 9 32 -3 39 -21z m1208 11 c14 -8 7 -42 -12 -53 -11 -5 -23 -19 -26 -31 -5 -15 -14 -19 -33 -17 -24 3 -27 8 -30 48 -4 54 16 74 63 64 16 -3 33 -8 38 -11z m8852 4 c17 -13 17 -15 -4 -36 -18 -18 -25 -20 -37 -10 -17 14 -18 46 -1 52 19 8 22 8 42 -6z m-9891 -3 c19 -7 20 -33 2 -56 -18 -25 -31 -22 -45 9 -11 23 -10 29 5 40 21 15 18 15 38 7z m3322 -9 c7 -17 -12 -45 -30 -45 -7 0 -21 6 -31 14 -16 12 -17 16 -6 30 17 20 60 21 67 1z m6729 4 c4 -5 1 -24 -5 -40 -10 -22 -17 -28 -32 -23 -10 3 -25 0 -33 -6 -13 -10 -15 -8 -15 15 0 43 66 85 85 54z m-1777 -21 c-2 -19 -12 -25 -52 -32 -48 -9 -48 -9 -43 -42 7 -43 -10 -54 -34 -23 -26 33 -24 57 5 65 13 3 28 16 35 30 9 20 18 24 51 24 37 0 41 -2 38 -22z m-4188 -54 c0 -20 -5 -24 -33 -24 -18 0 -42 6 -53 14 -19 14 -19 15 1 21 11 4 29 10 40 14 29 12 45 2 45 -25z m-1502 -45 c7 -3 16 -24 19 -47 5 -38 3 -44 -15 -49 -12 -3 -24 -13 -27 -24 -7 -22 -43 -35 -57 -21 -6 6 -16 21 -22 34 -9 18 -20 23 -48 23 -50 0 -71 21 -34 34 18 7 28 20 33 41 4 24 12 32 36 37 17 3 32 14 34 24 4 16 9 14 37 -15 17 -18 37 -35 44 -37z m1834 46 c6 -14 14 -25 18 -25 3 0 14 -6 24 -13 17 -13 17 -14 1 -30 -9 -10 -32 -17 -53 -17 -21 0 -47 -7 -58 -15 -27 -18 -34 -11 -34 37 0 27 5 41 17 45 9 4 25 15 35 25 24 24 36 23 50 -7z m217 16 c21 -14 7 -36 -38 -60 -23 -11 -44 -21 -46 -21 -3 0 -5 13 -5 29 0 36 14 49 70 60 3 0 11 -3 19 -8z m570 -65 c10 -11 8 -16 -9 -21 -22 -7 -53 11 -44 26 8 14 40 11 53 -5z m586 -11 c0 -28 -29 -25 -33 3 -3 19 0 23 15 20 10 -2 18 -12 18 -23z m1388 19 c9 -10 -4 -34 -18 -34 -17 0 -28 17 -20 30 7 11 28 13 38 4z m603 -8 c15 -16 48 -105 41 -113 -10 -9 -77 89 -77 112 0 19 17 19 36 1z m2038 -20 c-6 -16 -8 -17 -16 -2 -11 19 0 42 13 29 6 -6 7 -18 3 -27z m-3890 -12 c21 -14 34 -30 29 -34 -15 -14 -90 -22 -98 -10 -6 10 15 70 25 70 3 0 23 -12 44 -26z m-3762 1 c13 -3 30 -15 39 -27 10 -12 34 -27 56 -33 25 -8 37 -16 34 -26 -38 -137 -47 -154 -77 -142 -24 9 -64 82 -64 118 0 26 -6 39 -25 51 -14 9 -25 24 -25 33 0 20 20 42 32 35 4 -3 18 -7 30 -9z m5404 -23 c6 -13 17 -29 23 -35 25 -25 12 -45 -36 -57 -55 -14 -77 -14 -116 -5 -22 6 -31 3 -43 -13 -17 -25 -84 -29 -84 -5 0 7 4 13 9 13 5 0 11 14 15 30 4 21 14 33 33 40 16 6 36 14 45 20 11 6 19 6 23 0 3 -6 19 -10 34 -10 20 0 31 7 40 26 14 31 41 29 57 -4z m-7604 -30 c23 -14 28 -24 28 -59 0 -36 -3 -43 -20 -43 -11 0 -20 4 -20 9 0 13 -86 60 -97 52 -6 -3 -15 -16 -22 -28 -18 -35 -48 -30 -54 10 -6 43 1 57 28 57 12 0 29 7 36 16 22 27 52 34 74 18 11 -8 32 -22 47 -32z m6098 24 c13 -17 10 -58 -5 -63 -6 -2 -18 10 -27 25 -13 22 -14 32 -6 40 16 16 23 15 38 -2z m1880 -10 c0 -13 -3 -32 -6 -41 -6 -14 -10 -12 -25 11 -13 21 -15 32 -7 41 17 21 38 15 38 -11z m-7740 4 c0 -5 -7 -10 -15 -10 -8 0 -15 5 -15 10 0 6 7 10 15 10 8 0 15 -4 15 -10z m4530 -34 c0 -26 -10 -36 -53 -54 -25 -11 -28 -10 -37 14 -16 40 3 64 50 64 35 0 40 -3 40 -24z m3620 15 c0 -5 -7 -22 -15 -37 -24 -46 -19 -62 23 -73 20 -6 45 -11 55 -11 21 0 22 -23 2 -40 -8 -7 -15 -21 -15 -32 0 -12 -12 -24 -35 -34 -23 -9 -35 -21 -35 -34 0 -11 -7 -20 -15 -20 -8 0 -20 -10 -26 -22 -17 -33 -27 -36 -70 -26 -34 9 -39 15 -45 47 -3 20 -7 40 -8 45 -1 5 -56 10 -121 11 -144 3 -175 13 -175 53 0 21 7 32 26 41 30 13 44 7 44 -19 0 -27 9 -30 88 -23 64 5 71 8 77 30 3 13 17 28 32 34 15 5 33 19 41 30 13 19 14 19 44 -6 16 -14 33 -25 37 -25 17 0 31 27 31 62 0 31 5 41 23 48 29 12 37 12 37 1z m-8022 -57 c12 -46 13 -46 48 -41 19 3 47 2 60 -4 22 -8 29 -5 51 21 29 35 49 38 58 10 8 -24 -10 -50 -34 -50 -9 0 -32 -14 -51 -30 -28 -24 -44 -30 -82 -30 -89 0 -113 25 -110 118 2 41 8 52 31 52 12 0 21 -14 29 -46z m4587 35 c8 -12 -23 -49 -42 -49 -8 0 -13 12 -13 30 0 25 4 30 24 30 14 0 28 -5 31 -11z m2215 -8 c20 -39 13 -50 -37 -53 -36 -2 -50 -8 -58 -24 -6 -11 -16 -19 -24 -16 -10 3 -11 0 -2 -16 6 -11 11 -30 11 -41 0 -11 9 -25 19 -30 10 -6 24 -25 30 -42 6 -17 20 -33 31 -36 11 -3 20 -10 20 -15 0 -5 16 -16 35 -24 19 -8 35 -19 35 -24 0 -6 9 -10 20 -10 15 0 20 7 20 28 0 35 22 68 39 58 7 -5 16 -19 21 -32 5 -13 18 -24 28 -24 25 0 42 -19 42 -47 0 -13 5 -23 10 -23 6 0 10 -7 10 -17 0 -15 -1 -15 -18 0 -10 10 -27 17 -38 17 -11 0 -29 7 -40 15 -26 19 -53 19 -61 -2 -12 -32 -47 -63 -70 -63 -13 0 -29 10 -39 25 -12 18 -25 25 -48 25 -49 0 -56 11 -63 89 -6 66 -8 73 -34 87 -35 18 -36 26 -4 60 14 15 25 32 25 39 0 7 9 20 20 30 11 10 20 22 20 26 0 4 4 19 10 33 8 21 16 26 44 26 25 0 38 -6 46 -19z m1383 -42 c2 -32 0 -34 -35 -37 -21 -2 -38 1 -38 6 0 19 24 77 34 84 17 11 38 -16 39 -53z m534 45 c9 -23 -11 -38 -26 -20 -13 16 -7 36 10 36 5 0 12 -7 16 -16z m-7077 -12 c0 -9 9 -23 20 -30 29 -18 25 -32 -9 -32 -36 0 -40 6 -34 48 5 33 23 45 23 14z m870 -32 c10 -5 23 -23 28 -40 10 -27 9 -30 -9 -30 -10 0 -19 4 -19 9 0 12 -45 22 -64 15 -9 -3 -16 -14 -16 -24 0 -32 -12 -50 -41 -65 -59 -31 -86 -10 -77 61 3 25 8 30 48 37 25 5 54 17 65 28 21 21 56 25 85 9z m-1026 -23 c13 -21 -21 -71 -53 -75 -47 -7 -70 43 -26 54 14 3 30 15 36 26 12 22 27 20 43 -5z m6952 8 c6 -15 -17 -45 -35 -45 -6 0 -11 -6 -11 -14 0 -20 -69 -78 -88 -74 -12 2 -18 16 -20 46 -3 47 10 72 38 72 10 0 23 7 30 15 16 20 79 20 86 0z m-2088 -28 l22 -23 -29 -17 c-32 -19 -41 -14 -41 23 0 46 16 51 48 17z m-3533 -18 c4 -11 2 -33 -5 -49 -15 -35 -4 -57 48 -98 33 -27 39 -29 57 -16 31 23 55 17 67 -16 10 -29 13 -31 57 -28 40 3 46 0 49 -18 2 -11 -2 -33 -7 -48 -10 -24 -13 -26 -33 -15 -13 7 -26 17 -30 23 -4 7 -14 4 -27 -8 -16 -14 -30 -17 -62 -13 -33 4 -48 0 -77 -20 -20 -13 -38 -32 -38 -41 -1 -9 -2 -23 -3 -29 -2 -21 -27 -15 -60 13 -29 24 -31 31 -31 89 0 58 -3 65 -30 88 -17 15 -37 23 -48 20 -10 -2 -24 3 -31 11 -8 9 -20 16 -28 16 -22 0 -11 33 14 44 23 11 53 55 53 79 0 29 22 30 46 3 32 -34 51 -33 59 4 5 23 12 30 30 30 15 0 26 -7 30 -21z m-689 0 c3 -6 1 -15 -6 -19 -12 -8 -22 -7 -75 6 l-30 8 40 6 c62 11 63 11 71 -1z m4998 -81 c21 -60 -34 -105 -67 -54 -14 21 -14 26 4 55 23 38 49 38 63 -1z m1416 17 c0 -8 -6 -15 -14 -15 -17 0 -28 14 -19 24 12 12 33 6 33 -9z m-1301 -44 c12 -8 11 -13 -9 -29 -28 -22 -40 -20 -40 7 0 31 21 40 49 22z m-2939 -67 c0 -8 -7 -14 -15 -14 -15 0 -21 21 -9 33 10 9 24 -2 24 -19z m-4167 4 c16 -12 15 -16 -8 -50 -27 -40 -49 -48 -59 -22 -22 59 21 105 67 72z m2392 2 c3 -6 -1 -13 -10 -16 -19 -8 -30 0 -20 15 8 14 22 14 30 1z m675 -10 c0 -14 -33 -21 -44 -10 -8 8 -7 13 3 19 15 10 41 4 41 -9z m597 1 c7 -11 22 -21 35 -23 17 -2 24 -12 30 -43 5 -21 6 -45 4 -52 -9 -21 -52 -15 -85 13 -31 26 -68 29 -113 10 -13 -6 -19 -2 -24 18 -8 34 1 56 24 56 10 0 29 9 42 20 29 25 72 26 87 1z m4913 -12 c0 -31 -17 -57 -50 -74 -37 -19 -37 -19 -50 5 -15 28 4 60 34 60 13 0 29 7 36 15 17 21 30 19 30 -6z m-4355 -35 c16 -25 16 -25 -12 -22 -20 2 -29 9 -31 26 -5 31 21 29 43 -4z m3340 9 c31 -15 35 -21 35 -55 0 -32 -3 -38 -21 -38 -36 0 -89 49 -89 81 0 35 21 38 75 12z m387 -33 c40 -40 43 -60 7 -60 -44 0 -93 60 -74 90 11 18 27 11 67 -30z m-8094 2 c2 -12 12 -27 23 -32 13 -8 19 -21 19 -45 0 -19 -4 -35 -10 -35 -5 0 -10 9 -10 20 0 21 -4 24 -53 35 -28 6 -28 7 -13 30 9 13 16 32 16 40 0 24 24 12 28 -13z m8352 -69 c11 -33 20 -43 36 -43 13 0 24 8 27 20 4 17 8 18 35 8 30 -12 46 -45 32 -68 -4 -6 -38 -12 -78 -13 -65 -2 -73 0 -99 26 -21 19 -39 27 -66 27 -53 0 -60 25 -18 62 27 24 40 29 74 26 40 -3 43 -6 57 -45z m-7136 21 c10 -26 7 -72 -6 -76 -22 -8 -70 5 -75 20 -4 9 6 25 28 43 40 33 45 34 53 13z m7594 -5 c-10 -5 -18 -15 -18 -22 0 -7 -10 -17 -22 -22 -14 -6 -29 -27 -37 -52 -18 -50 -5 -88 34 -103 51 -19 25 -86 -37 -96 -34 -6 -38 -4 -48 20 -5 15 -10 41 -10 57 0 16 -11 47 -25 69 -28 44 -25 65 10 74 12 3 25 16 29 28 7 28 58 55 106 56 28 1 32 -1 18 -9z m-5108 -19 c11 -11 20 -32 20 -46 0 -14 7 -38 16 -54 10 -15 14 -35 11 -44 -6 -14 -10 -14 -41 4 -32 17 -37 18 -65 4 -16 -8 -52 -17 -80 -21 -65 -7 -90 -25 -75 -50 9 -14 22 -17 56 -15 49 4 65 -12 53 -49 -5 -15 -16 -19 -50 -19 -67 0 -75 -6 -75 -58 0 -44 -1 -45 -17 -29 -15 14 -15 21 -5 37 26 42 16 55 -43 56 -80 2 -88 12 -83 107 3 72 6 81 31 103 22 18 37 23 76 21 35 -1 54 3 69 16 16 15 26 16 63 8 66 -16 74 -14 86 19 13 35 26 37 53 10z m-1104 -26 c3 -13 12 -28 20 -35 26 -21 15 -37 -31 -43 -35 -6 -45 -11 -45 -26 0 -24 -7 -28 -75 -46 -64 -16 -90 -8 -97 30 -6 30 16 84 36 92 8 3 38 1 67 -5 58 -13 79 -4 79 34 0 12 3 24 6 28 11 11 34 -5 40 -29z m1382 4 c4 -31 -15 -36 -62 -18 -32 12 -33 28 -3 40 38 16 62 8 65 -22z m160 -5 c2 -13 13 -30 25 -38 24 -17 22 -20 -18 -28 -24 -4 -38 1 -69 28 -51 43 -45 68 16 63 36 -2 44 -7 46 -25z m3427 -19 c4 -22 2 -41 -4 -47 -16 -16 -13 -63 4 -77 21 -17 19 -37 -5 -43 -23 -6 -37 8 -42 43 -2 19 -10 26 -30 28 -16 2 -28 8 -28 13 0 5 -9 9 -20 9 -14 0 -20 -7 -20 -24 0 -30 -30 -43 -46 -21 -6 8 -14 34 -18 57 -9 54 10 77 49 60 53 -25 111 -13 126 25 12 31 25 22 34 -23z m-270 -5 c8 -45 -2 -59 -42 -59 -33 0 -29 -32 7 -73 53 -61 31 -97 -59 -97 -21 0 -52 -7 -69 -16 -28 -14 -33 -14 -56 1 -22 15 -27 15 -56 0 -32 -16 -50 -13 -50 9 0 8 -19 16 -49 20 -44 6 -69 24 -54 40 11 11 89 6 100 -5 9 -9 22 -8 53 5 30 12 56 14 96 10 67 -8 74 -2 74 76 0 62 6 74 37 84 12 4 25 16 28 27 11 33 33 21 40 -22z m-4374 -9 c24 -13 24 -32 1 -53 -17 -16 -20 -15 -43 9 -24 25 -24 26 -5 40 24 17 22 17 47 4z m3065 -25 c19 -18 34 -38 34 -43 0 -5 -15 -26 -33 -46 -28 -30 -40 -36 -73 -36 -42 0 -64 -14 -64 -40 0 -9 -17 -24 -39 -34 -22 -9 -43 -26 -46 -37 -6 -18 -12 -20 -61 -13 -53 6 -54 6 -54 -20 0 -19 5 -26 20 -26 13 0 20 -7 20 -20 0 -21 -27 -40 -60 -40 -27 0 -86 65 -94 103 -8 38 -23 57 -47 57 -14 0 -19 7 -19 25 0 15 -11 35 -26 48 -32 28 -43 93 -20 122 15 20 16 19 50 -15 19 -19 43 -51 54 -70 l19 -35 123 0 124 0 9 37 c7 31 20 45 69 78 33 22 65 40 71 40 5 0 25 -16 43 -35z m2568 19 c22 -9 20 -31 -4 -39 -11 -3 -20 -11 -20 -16 0 -5 -9 -9 -20 -9 -24 0 -27 32 -4 54 17 18 24 19 48 10z m-4694 -31 c-1 -27 -1 -27 -15 -9 -14 19 -12 36 6 36 5 0 9 -12 9 -27z m-768 -5 c9 -4 41 -6 70 -2 39 4 58 2 73 -9 20 -15 20 -16 -9 -46 -32 -34 -43 -36 -90 -21 -17 5 -52 12 -78 15 -53 7 -71 26 -57 62 7 19 13 22 41 16 18 -3 41 -10 50 -15z m1338 -7 c5 -11 7 -27 4 -36 -4 -10 1 -21 12 -30 11 -7 16 -17 11 -21 -4 -4 -13 -2 -19 4 -7 7 -19 12 -27 12 -21 0 -51 30 -51 51 0 18 24 38 47 39 7 0 17 -9 23 -19z m4548 -74 c11 -8 9 -13 -10 -23 -13 -8 -35 -13 -49 -14 -18 0 -28 -7 -32 -20 -3 -11 -10 -20 -15 -20 -17 0 -23 31 -10 58 19 39 79 49 116 19z m-6144 4 c17 -6 15 -9 -13 -21 -23 -9 -35 -10 -43 -2 -24 24 14 40 56 23z m1328 -18 c32 -14 38 -22 39 -47 0 -17 2 -39 4 -49 2 -9 0 -16 -3 -14 -4 2 -24 12 -45 22 -30 16 -40 17 -55 7 -43 -31 -56 -27 -67 21 -6 24 -3 29 28 42 20 8 38 19 42 25 8 13 12 13 57 -7z m588 4 c0 -8 -3 -17 -7 -20 -9 -9 -34 13 -27 24 8 14 34 11 34 -4z m1623 -8 c23 -6 37 -16 38 -27 2 -34 -3 -57 -17 -73 -8 -8 -14 -29 -14 -46 0 -37 19 -46 109 -47 75 -1 92 -19 33 -36 -28 -9 -41 -20 -50 -42 -15 -40 -55 -37 -60 5 -3 21 -11 31 -33 39 -16 5 -34 19 -40 30 -6 12 -17 17 -25 14 -22 -8 -54 12 -54 33 0 11 6 21 14 24 8 3 17 26 21 54 13 91 12 91 78 72z m-3678 -23 c26 -19 13 -46 -23 -46 -48 0 -69 34 -29 50 30 12 31 12 52 -4z m-149 -52 c8 -44 -5 -58 -45 -49 -32 7 -41 28 -17 42 7 4 18 18 25 31 15 29 28 21 37 -24z m1179 -17 c14 -15 24 -37 24 -50 -1 -17 -2 -18 -6 -5 -2 10 -14 20 -26 22 -79 16 -77 15 -68 39 5 12 12 31 16 42 l6 20 15 -20 c7 -11 25 -32 39 -48z m4525 15 c0 -20 -12 -41 -35 -65 -39 -40 -56 -45 -75 -21 -11 13 -10 19 8 37 11 12 32 34 46 50 33 36 56 35 56 -1z m-2280 -7 c16 -19 6 -45 -18 -45 -29 0 -48 26 -32 45 16 19 34 19 50 0z m-2836 -1 c20 -8 21 -28 2 -43 -12 -10 -17 -9 -24 6 -5 10 -7 24 -5 31 5 14 6 14 27 6z m1174 -31 c2 -18 -1 -40 -6 -48 -7 -13 -13 -9 -35 24 -25 37 -25 41 -9 50 29 18 47 8 50 -26z m1115 23 c3 -8 1 -31 -4 -50 -9 -32 -13 -36 -44 -36 -39 0 -65 8 -65 21 0 5 15 25 33 44 34 35 71 45 80 21z m-515 -47 c-2 -19 -7 -34 -12 -34 -15 0 -24 39 -14 64 12 34 30 13 26 -30z m-444 15 c19 -19 20 -26 4 -42 -14 -14 -67 -16 -88 -2 -27 17 8 51 62 59 4 1 14 -6 22 -15z m-2002 -43 c4 -24 6 -47 4 -50 -2 -3 -34 -4 -70 -3 l-66 4 0 42 c0 24 3 46 7 50 4 4 32 6 62 4 l56 -3 7 -44z m2783 13 c0 -10 -8 -20 -17 -22 -18 -3 -26 27 -11 42 12 11 28 0 28 -20z m-1875 -25 c15 -44 7 -59 -33 -59 -11 0 -21 -9 -24 -20 -7 -27 -22 -25 -33 6 -14 36 -13 42 9 49 11 3 26 19 33 35 18 41 32 38 48 -11z m2545 -57 c-8 -45 -12 -52 -31 -52 -8 0 -14 -8 -14 -19 0 -10 -7 -34 -15 -54 -14 -33 -16 -35 -39 -24 -50 24 -37 91 18 99 17 2 22 11 24 48 4 50 17 64 45 48 15 -8 18 -16 12 -46z m1095 33 c11 -13 8 -17 -19 -26 -18 -6 -36 -22 -41 -34 -8 -22 -62 -41 -81 -29 -19 11 -9 54 14 63 13 5 29 16 36 25 17 20 75 21 91 1z m414 -15 c25 -30 26 -60 2 -60 -6 0 -27 13 -46 29 -30 25 -33 31 -21 45 20 23 36 20 65 -14z m1101 -30 c25 -48 32 -80 18 -80 -4 0 -27 10 -51 21 -31 15 -48 32 -58 55 -18 43 -18 42 9 47 51 10 57 7 82 -43z m411 -2 c17 -13 5 -51 -13 -44 -8 3 -25 6 -38 6 -24 0 -38 21 -29 45 6 15 58 11 80 -7z m-7789 -4 c8 -21 -13 -42 -28 -27 -13 13 -5 43 11 43 6 0 13 -7 17 -16z m5122 0 c6 -6 -31 -33 -46 -34 -16 0 -26 18 -19 37 5 11 13 13 34 8 15 -4 29 -9 31 -11z m1935 0 c19 -18 30 -59 21 -73 -11 -18 -37 -12 -42 9 -3 11 -11 20 -18 20 -19 0 -38 28 -31 45 7 20 50 19 70 -1z m-1084 -9 c0 -8 -4 -15 -10 -15 -5 0 -10 7 -10 15 0 8 5 15 10 15 6 0 10 -7 10 -15z m968 -59 c2 -11 -6 -20 -25 -26 -16 -6 -33 -20 -38 -33 -12 -26 -39 -31 -113 -22 -42 5 -62 14 -85 36 -30 30 -32 52 -5 57 9 2 19 -6 23 -17 8 -25 32 -27 63 -5 13 9 34 14 48 11 15 -3 35 4 56 19 28 21 34 22 52 10 12 -7 22 -21 24 -30z m-2744 25 c21 -5 43 -14 48 -19 18 -18 -1 -61 -32 -77 -33 -17 -30 -18 -46 33 -2 6 -15 12 -29 12 -18 0 -28 -7 -35 -25 -5 -14 -17 -25 -28 -25 -10 0 -23 -5 -30 -12 -8 -8 -15 -8 -27 2 -21 18 -19 47 6 55 11 4 25 17 31 30 15 33 69 42 142 26z m344 -19 c3 -18 -1 -22 -22 -22 -19 0 -26 5 -26 18 0 39 43 43 48 4z m359 -20 c-10 -10 -17 -28 -17 -40 0 -27 -28 -54 -53 -50 -25 4 -48 38 -29 45 6 3 12 10 12 17 0 20 32 44 65 48 39 4 42 2 22 -20z m251 -39 c3 -28 -2 -36 -30 -53 -58 -35 -78 -24 -78 45 0 37 6 41 64 41 39 -1 41 -3 44 -33z m2712 16 c16 -28 5 -51 -21 -47 -27 4 -44 30 -36 52 9 23 44 20 57 -5z m-6191 -20 c6 -18 18 -37 27 -44 12 -8 15 -20 10 -38 -5 -22 -12 -27 -38 -27 -17 0 -39 -7 -49 -16 -9 -8 -24 -17 -33 -18 -8 -1 -24 -10 -35 -20 -19 -17 -22 -18 -45 -2 -14 9 -36 16 -49 16 -18 0 -26 7 -29 25 l-5 24 28 -19 c24 -18 31 -19 56 -8 15 7 33 19 38 26 6 7 24 16 40 20 26 7 30 13 33 48 1 21 5 45 7 52 8 23 33 12 44 -19z m-1720 -38 c11 -7 14 -25 12 -64 -2 -51 -1 -56 21 -59 18 -2 24 -10 26 -36 2 -22 -2 -34 -13 -38 -21 -9 -37 8 -37 39 0 15 -13 35 -34 52 -19 16 -34 34 -34 41 0 6 -7 14 -15 18 -15 5 -21 37 -8 49 9 10 66 8 82 -2z m456 -11 c0 -16 -28 -25 -52 -16 -12 5 -13 9 -3 22 16 18 55 15 55 -6z m812 3 c5 -13 -32 -27 -47 -18 -8 5 -7 11 1 21 14 17 40 15 46 -3z m-397 -38 c5 -3 10 -22 10 -42 0 -38 3 -37 -62 -16 -11 3 -21 -5 -32 -26 -9 -17 -22 -31 -29 -31 -7 0 -18 -9 -25 -20 -13 -21 -47 -27 -57 -10 -9 15 -58 12 -91 -5 -32 -16 -70 -11 -78 10 -8 23 21 38 58 31 29 -6 35 -3 41 14 9 29 40 43 63 29 24 -15 52 -5 52 18 0 10 7 29 16 42 15 21 22 23 70 18 30 -3 58 -8 64 -12z m2338 -14 c5 -33 -10 -44 -41 -30 -31 14 -35 33 -9 48 26 16 47 9 50 -18z m776 -14 c-3 -9 -13 -17 -20 -17 -21 0 -29 27 -13 46 10 13 14 13 26 1 8 -7 11 -21 7 -30z m174 13 c9 -17 25 -33 35 -36 11 -3 28 -15 38 -25 11 -11 33 -19 53 -19 38 0 53 -22 41 -60 -5 -16 -15 -20 -48 -20 -24 0 -53 7 -66 16 -22 16 -24 16 -53 -15 -34 -36 -47 -36 -66 2 -7 15 -19 27 -26 27 -17 0 -30 62 -20 93 22 71 82 90 112 37z m2642 -20 c0 -11 6 -20 13 -20 23 -1 87 -69 87 -93 0 -35 -7 -37 -50 -16 -25 12 -40 27 -42 41 -2 14 -17 30 -40 41 -36 20 -37 20 -64 -2 -29 -23 -49 -27 -59 -11 -11 18 17 42 43 37 20 -4 27 1 35 24 6 15 18 30 27 32 24 6 50 -12 50 -33z m-6407 -33 c12 -13 30 -26 40 -30 9 -4 20 -14 23 -22 7 -18 -22 -55 -43 -55 -15 0 -18 -26 -3 -35 15 -9 12 -42 -5 -75 -19 -37 -49 -39 -87 -5 -35 31 -36 62 -3 75 14 5 28 18 31 27 3 10 11 28 17 40 8 18 7 27 -6 41 -22 24 -22 62 -2 62 9 0 26 -10 38 -23z m1824 -62 c3 -9 18 -22 34 -31 32 -16 38 -38 13 -48 -26 -10 -69 -7 -87 7 -16 11 -16 14 0 49 19 40 30 47 40 23z m3802 -58 c8 -10 8 -16 0 -24 -18 -18 -1 -81 27 -105 26 -23 46 -80 37 -104 -3 -8 -15 -14 -27 -14 -11 0 -31 -3 -43 -6 -18 -5 -26 0 -40 24 -10 17 -26 33 -35 36 -10 2 -18 13 -18 26 0 11 -12 31 -26 43 -17 15 -27 36 -31 65 l-6 42 61 0 c44 0 61 4 66 15 7 19 20 19 35 2z m-3996 -8 c12 -6 30 -18 40 -27 16 -14 16 -16 -3 -29 -27 -19 -50 -10 -50 20 0 13 -5 28 -12 35 -15 15 -3 15 25 1z m890 -22 c21 -8 19 -26 -6 -41 -12 -8 -21 -5 -36 8 -33 30 -25 81 8 53 9 -8 24 -17 34 -20z m-1023 8 c7 -8 10 -25 6 -38 -7 -30 -90 -66 -115 -50 -9 6 -31 14 -48 17 -34 8 -53 40 -34 59 6 6 43 14 83 17 40 4 78 8 84 9 6 0 17 -6 24 -14z m-1667 -14 c4 -5 5 -20 1 -35 -6 -24 -9 -26 -43 -20 -47 9 -61 21 -61 51 0 24 2 25 48 18 26 -4 51 -10 55 -14z m6974 -11 c14 -26 33 -28 46 -4 9 17 73 19 83 3 3 -6 2 -14 -3 -18 -6 -3 -13 -28 -16 -55 -4 -27 -11 -54 -17 -61 -12 -14 -80 -7 -80 9 -1 27 -75 86 -109 86 -4 0 -13 -11 -19 -25 -13 -27 -33 -32 -51 -12 -8 10 -5 22 14 48 36 49 52 58 98 56 33 -2 44 -7 54 -27z m-1449 -12 c-2 -13 -7 -23 -13 -23 -5 0 -11 10 -13 23 -2 15 2 22 13 22 11 0 15 -7 13 -22z m772 8 c0 -21 -21 -31 -30 -15 -5 7 -6 17 -4 21 9 14 34 9 34 -6z m128 -5 c17 -10 6 -57 -15 -65 -21 -8 -47 14 -33 28 5 5 10 18 10 28 0 19 16 23 38 9z m-1280 -43 c7 -7 12 -22 12 -35 0 -20 5 -23 38 -24 34 0 35 -1 14 -11 -16 -8 -22 -19 -20 -36 2 -14 -2 -27 -9 -29 -7 -2 -13 8 -15 24 -3 24 -7 28 -33 26 -67 -4 -96 -15 -106 -40 -14 -38 -34 -22 -37 30 -3 38 0 49 15 54 10 4 33 17 52 30 37 25 71 29 89 11z m-4462 -35 c36 -29 47 -78 20 -89 -21 -8 -86 35 -86 57 0 10 -9 28 -20 39 l-20 20 36 0 c23 0 47 -9 70 -27z m2132 5 c18 -18 14 -56 -6 -67 -23 -12 -42 3 -42 34 0 20 17 45 30 45 3 0 11 -5 18 -12z m2734 -27 c11 -18 18 -43 16 -55 -3 -19 -8 -21 -75 -18 -71 4 -72 3 -75 -22 -4 -34 -24 -33 -21 0 1 14 -7 35 -17 47 -46 48 2 101 59 65 14 -9 23 -8 42 6 32 22 49 17 71 -23z m-1797 -1 c0 -13 -6 -25 -12 -27 -9 -3 -13 6 -13 27 0 21 4 30 13 28 6 -3 12 -15 12 -28z m-1921 -35 c28 -22 29 -27 20 -61 -6 -26 -18 -43 -38 -54 -21 -11 -33 -29 -43 -63 -7 -26 -18 -47 -24 -47 -6 0 -22 -9 -36 -20 -23 -18 -73 -28 -73 -15 0 3 9 14 20 25 11 11 20 29 20 40 0 10 9 24 21 30 17 10 20 17 14 51 -10 55 9 102 48 122 41 20 37 20 71 -8z m777 -29 c16 -35 3 -75 -27 -86 -28 -11 -184 -6 -249 7 -82 17 -32 71 67 72 20 1 40 -3 43 -9 10 -17 32 -11 62 15 38 33 89 34 104 1z m-2603 -84 c-3 -37 -4 -37 -50 -40 -38 -2 -48 0 -48 13 0 8 11 20 25 25 15 6 25 17 25 29 0 11 8 24 17 30 24 13 35 -8 31 -57z m1660 34 c5 -42 -8 -49 -64 -35 -27 7 -50 13 -52 15 -2 1 4 14 14 29 14 22 23 26 58 23 37 -3 41 -6 44 -32z m-1229 10 c20 -23 -43 -85 -94 -93 -22 -3 -46 -14 -53 -24 -15 -21 -73 -42 -94 -34 -17 7 -31 56 -22 80 8 19 42 29 57 17 7 -6 32 -10 57 -9 40 2 45 5 48 27 2 14 5 31 7 38 6 17 80 15 94 -2z m1071 -6 c24 -20 20 -25 -25 -32 -15 -2 -21 3 -23 25 -4 33 15 36 48 7z m3531 -137 c-11 -24 -48 -31 -66 -14 -6 5 -29 12 -52 16 l-43 7 0 -90 c0 -109 -4 -112 -102 -85 -14 3 -18 15 -18 54 0 42 4 51 23 60 12 5 30 28 39 50 16 38 19 40 50 34 29 -6 36 -2 55 24 13 16 38 35 58 42 19 7 35 18 36 24 0 5 7 -15 15 -45 11 -40 12 -61 5 -77z m-2059 73 c11 -16 9 -68 -2 -86 -10 -17 -23 -8 -25 18 -2 27 -14 42 -35 42 -23 0 -34 15 -26 36 4 11 15 13 43 8 21 -4 41 -12 45 -18z m458 -26 c16 -30 -5 -89 -37 -101 -31 -12 -70 -12 -78 0 -3 6 -3 28 1 50 6 36 11 41 48 54 56 20 54 20 66 -3z m-3660 -42 c0 -44 12 -60 40 -56 17 2 26 13 34 42 15 52 30 55 44 9 13 -41 3 -63 -29 -63 -24 0 -26 -46 -3 -72 14 -14 14 -18 3 -22 -8 -2 -22 -7 -33 -10 -13 -4 -29 5 -57 34 -21 22 -39 46 -39 54 0 7 -7 19 -15 26 -13 11 -13 14 0 27 8 8 15 22 15 32 0 21 9 31 27 31 8 0 13 -12 13 -32z m2510 22 c10 -5 27 -25 39 -45 19 -33 24 -35 70 -35 27 0 53 5 56 10 9 15 25 12 25 -4 0 -8 -7 -27 -15 -43 -8 -15 -17 -40 -20 -55 -5 -26 -9 -28 -55 -28 -47 0 -50 2 -64 34 -24 57 -50 76 -104 76 -27 0 -57 6 -67 14 -18 13 -16 15 22 34 22 12 43 28 46 37 7 17 39 20 67 5z m-2181 -49 c15 -9 13 -16 -17 -66 -25 -40 -75 -55 -102 -30 -23 21 -26 45 -6 45 7 0 20 7 27 17 12 14 63 42 79 42 3 1 11 -3 19 -8z m3929 -46 c9 -19 8 -27 -4 -40 -22 -21 -34 -10 -34 31 0 41 21 46 38 9z m-1324 -9 c9 -13 7 -20 -8 -31 -23 -18 -36 -11 -36 19 0 40 23 46 44 12z m146 10 c0 -19 -17 -29 -37 -22 -12 5 -13 9 -3 21 16 19 40 19 40 1z m-2403 -27 c4 -19 14 -34 25 -37 26 -7 17 -26 -15 -30 -34 -4 -117 44 -117 67 0 26 9 31 57 31 41 0 44 -2 50 -31z m3263 11 c28 -24 18 -40 -26 -43 -26 -2 -29 1 -32 31 -3 26 0 32 16 32 10 0 29 -9 42 -20z m150 -4 c0 -32 -10 -38 -40 -23 -44 22 -34 42 23 46 12 1 17 -6 17 -23z m-4196 -17 c11 -54 8 -69 -15 -69 -17 0 -54 14 -67 26 -7 5 53 74 64 74 6 0 14 -14 18 -31z m2141 1 c-5 -8 -11 -8 -17 -2 -6 6 -7 16 -3 22 5 8 11 8 17 2 6 -6 7 -16 3 -22z m5482 15 c5 -16 -14 -38 -26 -31 -18 12 -13 48 6 44 9 -2 18 -7 20 -13z m-7072 -43 c8 -26 -12 -37 -51 -28 l-26 7 29 27 c30 30 37 29 48 -6z m1773 -17 c2 -11 10 -27 18 -36 13 -14 10 -29 -6 -29 -4 0 -17 9 -30 20 -13 11 -32 20 -44 20 -12 0 -27 4 -35 9 -12 8 -13 12 -1 26 20 24 94 17 98 -10z m2640 -3 c18 -24 17 -231 -2 -238 -19 -7 -56 12 -83 44 -21 25 -24 26 -57 14 -23 -9 -57 -10 -101 -6 -55 6 -69 11 -82 30 -8 13 -25 24 -37 24 -71 1 -86 31 -19 40 48 7 63 3 63 -15 0 -27 22 -27 46 -1 20 20 34 26 69 26 35 0 45 4 50 20 4 11 22 36 42 55 29 29 40 33 67 28 17 -3 37 -13 44 -21z m-5130 5 c8 -9 6 -20 -7 -40 -21 -32 -31 -26 -31 20 0 35 18 44 38 20z m6346 -2 c7 -18 -20 -46 -39 -39 -22 9 -26 33 -7 43 24 15 39 13 46 -4z m171 -35 c0 -38 -3 -45 -20 -45 -13 0 -21 8 -23 22 -2 13 -13 29 -24 37 -28 20 -13 38 30 34 37 -3 37 -3 37 -48z m-6618 -6 c9 -23 -14 -64 -36 -64 -13 0 -20 9 -23 28 -2 16 -2 34 0 40 6 18 52 14 59 -4z m4566 3 c8 -21 -5 -33 -40 -40 -35 -7 -57 10 -47 37 8 20 79 23 87 3z m-1429 -5 c2 -4 1 -14 -4 -22 -7 -11 -12 -12 -21 -3 -6 6 -8 16 -5 22 8 13 23 14 30 3z m660 0 c10 -17 -10 -29 -41 -25 -52 8 -39 24 24 32 6 0 14 -3 17 -7z m936 -12 c0 -11 -7 -20 -15 -20 -8 0 -15 9 -15 20 0 11 7 20 15 20 8 0 15 -9 15 -20z m610 -1 c0 -16 31 -38 53 -39 12 0 17 -6 15 -17 -2 -14 -15 -19 -52 -21 -64 -4 -75 8 -50 53 18 35 34 46 34 24z m-3147 -37 c13 -14 14 -21 5 -30 -26 -26 -54 -7 -43 28 8 25 17 25 38 2z m844 -8 c3 -9 1 -25 -5 -35 -7 -10 -12 -26 -12 -34 0 -22 -18 -18 -25 5 -3 11 -11 20 -16 20 -10 0 -12 43 -2 53 13 13 54 7 60 -9z m4326 -23 c26 -11 48 -28 52 -40 3 -11 14 -23 23 -26 9 -3 27 -14 39 -24 18 -15 22 -25 16 -51 -5 -29 -8 -31 -36 -26 -17 4 -34 11 -37 16 -3 5 -21 13 -39 16 -33 7 -34 7 -29 -25 3 -17 -1 -36 -7 -41 -15 -12 -72 5 -101 31 -25 23 -41 24 -61 3 -9 -8 -25 -14 -37 -12 -18 3 -21 10 -21 48 0 35 4 45 18 48 32 6 64 -7 70 -29 4 -15 11 -20 22 -15 9 3 37 6 62 6 37 0 44 3 41 17 -2 10 -16 24 -31 31 -31 15 -36 46 -10 74 20 22 12 22 66 -1z m-3088 -15 c29 -12 35 -20 35 -45 0 -38 -31 -59 -51 -35 -9 11 -27 15 -63 12 l-51 -3 0 35 c0 31 4 36 30 41 49 11 64 10 100 -5z m1565 -6 c9 -16 5 -25 -20 -51 -30 -31 -37 -64 -32 -139 4 -62 3 -83 -7 -93 -13 -13 -41 9 -41 33 0 34 -27 42 -141 45 -96 3 -114 6 -133 24 -12 12 -30 21 -39 21 -19 0 -24 44 -6 55 17 11 75 -4 99 -25 29 -25 35 -25 57 -1 10 11 32 23 48 27 17 3 38 14 48 23 10 8 42 18 70 21 52 5 52 5 55 43 4 41 24 50 42 17z m-5075 -14 c0 -10 -7 -22 -15 -26 -8 -4 -26 -12 -38 -19 -28 -15 -30 -14 -38 26 -7 35 6 42 61 40 22 -2 30 -7 30 -21z m509 18 c9 -3 16 -11 16 -17 0 -18 -32 -47 -53 -47 -11 0 -29 -8 -39 -17 -14 -13 -21 -14 -30 -5 -9 9 -9 12 0 13 7 1 18 2 25 3 6 0 13 12 15 26 6 51 22 61 66 44z m-306 -30 c-3 -27 -31 -54 -44 -42 -3 4 0 21 7 37 17 39 42 41 37 5z m2837 -15 c9 -51 -2 -64 -49 -55 -35 7 -48 28 -25 41 5 4 14 18 19 31 6 14 18 24 29 24 15 0 21 -9 26 -41z m-3602 -23 c7 -18 -1 -26 -25 -26 -18 0 -25 20 -11 33 11 12 31 8 36 -7z m177 -16 c6 -11 18 -20 26 -20 9 0 21 -13 27 -30 16 -42 51 -41 66 1 9 26 13 29 25 20 8 -7 16 -27 18 -44 3 -37 27 -46 65 -26 20 11 26 10 40 -4 18 -17 13 -22 -32 -29 -11 -2 -22 -14 -26 -28 -6 -23 -7 -24 -13 -5 -16 44 -23 50 -57 46 -19 -2 -56 -4 -84 -5 l-50 -1 -3 54 c-3 43 -7 54 -23 58 -20 5 -24 15 -12 26 11 12 22 8 33 -13z m498 1 c-19 -37 -53 -81 -63 -81 -19 0 -45 -39 -45 -67 0 -14 10 -27 28 -35 25 -12 27 -18 27 -68 l0 -55 -44 2 c-24 1 -46 4 -49 7 -2 3 -9 50 -14 105 -10 118 -2 140 62 161 22 7 47 21 56 31 14 16 50 16 42 0z m1263 -7 c10 -9 38 -19 62 -21 41 -5 45 -8 53 -41 10 -40 25 -49 46 -30 55 52 98 66 98 34 0 -22 54 -40 78 -25 25 16 50 6 62 -26 11 -28 18 -30 54 -14 35 16 49 3 76 -77 24 -74 22 -82 -33 -91 -30 -5 -37 -3 -37 11 0 9 -9 34 -20 55 -16 32 -27 40 -64 50 -25 6 -59 11 -75 11 -17 0 -31 5 -31 10 0 6 -4 10 -10 10 -5 0 -10 -8 -10 -18 0 -35 -30 -63 -63 -60 -30 3 -32 1 -35 -34 -2 -21 -8 -38 -14 -38 -5 0 -17 -9 -26 -21 -11 -12 -34 -23 -60 -26 -38 -5 -42 -4 -42 15 0 12 10 27 23 33 12 7 28 20 35 31 8 10 25 18 43 18 22 0 29 5 29 19 0 10 -7 24 -15 31 -8 7 -15 23 -15 36 0 22 -5 26 -62 38 -19 4 -30 16 -38 42 -12 35 -13 36 -51 30 -46 -7 -55 14 -14 32 14 6 25 16 25 22 0 14 11 12 31 -6z m3207 -32 c3 -43 -5 -50 -42 -36 -19 7 -20 24 -4 59 18 40 42 28 46 -23z m-1870 -22 c2 -19 12 -40 21 -47 10 -7 24 -26 31 -43 15 -37 37 -39 50 -4 12 32 50 30 65 -4 6 -13 20 -25 33 -29 25 -6 30 -37 9 -62 -15 -18 -47 -114 -47 -142 0 -10 -10 -24 -22 -30 -12 -7 -30 -21 -38 -32 -19 -23 -40 -16 -40 13 0 40 -134 68 -169 36 -9 -8 -28 -17 -43 -20 -14 -2 -36 -10 -48 -16 -41 -22 -73 -9 -94 38 -16 33 -25 42 -45 42 -14 0 -42 3 -62 6 -29 5 -41 2 -58 -15 -11 -11 -33 -21 -47 -21 -22 0 -24 3 -19 23 11 37 34 67 53 69 9 0 22 2 28 2 6 1 18 6 25 12 13 11 56 22 104 27 18 2 20 -3 17 -41 -2 -40 -1 -43 29 -49 17 -3 36 -14 42 -24 15 -24 23 -24 50 2 16 14 29 18 47 14 65 -16 77 -16 93 -1 8 9 29 16 45 16 26 0 30 4 36 38 7 45 -10 62 -64 62 -42 0 -92 33 -66 43 9 4 18 17 22 31 3 14 15 27 30 30 37 10 29 33 -13 39 -40 4 -63 -6 -63 -29 0 -8 -13 -17 -30 -20 -16 -4 -30 -10 -30 -15 0 -16 -48 -10 -54 7 -3 9 -6 37 -6 64 0 54 16 67 69 55 17 -4 32 -2 36 5 4 6 30 10 63 8 l57 -3 3 -35z m1477 7 c8 -13 34 -29 58 -36 23 -7 57 -22 75 -33 27 -16 32 -26 32 -57 0 -20 -7 -46 -15 -57 -8 -10 -15 -33 -15 -51 0 -29 -5 -34 -47 -53 -38 -17 -53 -19 -71 -10 -16 7 -22 16 -18 26 3 9 6 20 6 25 0 5 10 8 23 6 19 -2 22 3 22 33 0 29 -4 36 -22 38 -18 3 -24 12 -29 43 -8 47 -35 58 -98 41 -46 -12 -59 -5 -54 29 2 16 11 25 26 27 12 2 30 14 38 28 22 32 68 33 89 1z m-1861 -35 c2 -4 -7 -12 -20 -19 -27 -12 -30 -9 -11 12 14 16 24 18 31 7z m1272 -68 c4 -17 13 -24 31 -24 20 0 24 -4 21 -22 -4 -27 -47 -38 -59 -15 -5 8 -24 18 -43 21 -35 7 -64 31 -52 44 13 12 70 29 84 24 7 -2 15 -15 18 -28z m-1445 14 c2 -24 -3 -53 -10 -61 -23 -24 -61 34 -39 60 13 17 48 17 49 1z m1143 6 c20 -8 21 -28 2 -43 -20 -17 -52 15 -35 35 13 16 12 16 33 8z m-273 -12 c1 -8 7 -43 11 -64 2 -7 -7 -14 -19 -16 -17 -2 -24 3 -29 22 -4 17 -13 26 -25 26 -17 0 -26 20 -14 31 7 8 75 8 76 1z m3336 -72 c9 -16 23 -30 30 -30 23 0 14 -36 -12 -48 -47 -22 -105 -6 -105 28 0 8 -7 22 -16 32 -24 26 -2 48 47 48 32 0 41 -5 56 -30z m293 10 c19 -12 10 -20 -34 -27 -32 -5 -36 -3 -36 16 0 16 6 21 28 21 15 0 34 -4 42 -10z m-1883 -15 c20 -8 41 -23 48 -32 12 -15 15 -15 45 10 38 32 50 28 50 -18 0 -38 -19 -50 -47 -30 -24 19 -43 18 -58 -2 -11 -15 -17 -15 -39 -5 -14 6 -26 19 -26 29 0 9 -10 27 -22 40 -19 20 -19 23 -4 23 9 0 33 -7 53 -15z m-5213 -82 c6 -18 1 -25 -23 -38 -22 -11 -31 -23 -31 -40 0 -35 -47 -36 -56 -1 -8 32 10 62 46 81 17 9 30 23 30 32 0 15 2 15 14 3 8 -8 17 -25 20 -37z m4466 -41 c0 -27 -20 -70 -20 -44 0 6 -6 12 -14 12 -10 0 -12 7 -9 23 13 51 43 58 43 9z m-395 18 c11 -17 -5 -32 -21 -19 -8 6 -14 15 -14 20 0 12 27 11 35 -1z m-1872 -33 c38 -3 34 -10 -20 -34 -58 -24 -112 -28 -114 -7 -1 8 -2 19 -3 26 -1 16 42 28 79 22 17 -3 42 -6 58 -7z m-2678 -7 c7 -11 -31 -70 -45 -70 -11 0 -31 60 -24 71 7 12 61 11 69 -1z m7325 -13 c0 -12 -13 -37 -30 -55 -26 -28 -33 -31 -51 -22 -18 10 -20 17 -14 48 8 43 18 52 63 52 27 0 32 -4 32 -23z m-2886 -29 c6 -31 4 -38 -9 -38 -17 0 -18 4 -9 49 8 38 9 37 18 -11z m160 10 c10 -19 13 -35 7 -41 -12 -12 -31 0 -25 17 3 7 -2 19 -11 26 -19 16 -19 30 -1 30 8 0 22 -14 30 -32z m-3887 -44 c27 -18 39 -34 43 -57 4 -28 9 -32 35 -32 22 0 31 5 34 20 7 41 45 37 82 -9 15 -18 16 -23 3 -36 -11 -11 -20 -12 -46 -2 -18 6 -53 12 -78 13 -25 2 -64 11 -86 21 -34 15 -43 24 -47 50 -5 36 0 58 14 58 4 0 25 -12 46 -26z m426 -16 c21 -29 16 -62 -11 -73 -22 -8 -42 20 -42 60 0 53 20 58 53 13z m-713 -38 c0 -16 5 -32 10 -35 18 -11 10 -25 -14 -25 -27 0 -42 14 -51 52 -5 19 -2 29 11 36 26 15 44 3 44 -28z m4458 24 c12 -8 22 -22 22 -30 0 -9 11 -14 36 -14 62 0 94 -31 61 -59 -10 -8 -32 -7 -83 3 -79 15 -109 28 -124 56 -15 28 -12 40 13 50 33 13 50 12 75 -6z m-3132 -5 c13 -21 -19 -39 -59 -32 -27 4 -37 10 -37 24 0 16 8 19 44 19 25 0 48 -5 52 -11z m1039 -1 c2 -7 6 -26 7 -42 3 -26 -1 -31 -29 -39 -17 -5 -43 -7 -58 -3 -24 6 -25 10 -19 44 4 20 9 40 11 45 7 12 83 8 88 -5z m3813 -41 c15 -12 16 -39 1 -54 -7 -7 -22 -7 -49 1 -50 15 -52 17 -39 54 10 29 12 30 42 20 18 -6 38 -15 45 -21z m-3065 -31 c30 -30 34 -48 14 -65 -16 -13 -27 -5 -27 21 0 15 -8 18 -55 18 -30 0 -55 -4 -55 -10 0 -5 -5 -10 -11 -10 -15 0 -3 61 13 71 27 17 93 3 121 -25z m3843 -7 c11 -10 28 -19 37 -19 26 0 29 -18 7 -40 -35 -35 -90 -21 -90 22 0 10 -11 24 -25 30 -14 6 -25 18 -25 26 0 20 68 7 96 -19z m-1693 -16 c29 -9 20 -40 -15 -52 -26 -9 -35 -8 -47 3 -21 21 1 71 27 61 9 -4 25 -10 35 -12z m1514 -37 c-4 -9 -11 -16 -16 -16 -15 0 -23 33 -9 41 17 11 32 -5 25 -25z m-366 -36 c22 -12 24 -26 7 -63 -16 -33 -33 -40 -51 -22 -15 15 -12 60 6 83 12 15 13 15 38 2z m-6096 -10 c4 -6 -9 -10 -32 -9 -38 1 -38 1 -8 9 17 4 31 8 32 9 1 0 5 -3 8 -9z m5975 1 c0 -6 -5 -13 -10 -16 -15 -9 -43 3 -35 15 8 13 45 13 45 1z m-312 -7 c61 -12 49 -74 -13 -74 -42 0 -59 19 -45 54 10 28 13 29 58 20z m-2277 -30 c7 -21 6 -31 -7 -45 -10 -11 -21 -19 -25 -19 -15 0 -31 42 -25 66 9 33 43 32 57 -2z m3094 12 c34 -12 41 -19 48 -52 9 -46 0 -54 -63 -54 -57 0 -92 18 -104 53 -12 33 -1 46 46 57 18 4 33 8 33 9 0 0 18 -6 40 -13z m-2043 -24 c6 -16 20 -33 32 -38 28 -12 32 -40 7 -54 -16 -8 -24 -7 -39 8 -10 10 -34 18 -59 19 l-42 2 -7 -44 c-5 -33 -11 -46 -28 -51 -11 -3 -29 -13 -38 -21 -27 -24 -46 -9 -53 42 -5 28 -15 51 -27 59 -28 20 -22 91 7 91 13 0 21 -8 23 -22 3 -20 9 -23 52 -23 44 0 49 2 59 30 9 28 14 30 56 30 42 0 48 -3 57 -28z m1832 13 c10 -28 -23 -85 -51 -85 -14 0 -19 80 -6 93 12 13 51 7 57 -8z m-4236 -42 c-2 -31 -7 -39 -25 -41 -26 -4 -30 10 -8 28 8 7 15 21 15 31 0 11 5 19 11 19 6 0 9 -16 7 -37z m726 5 c14 -52 1 -63 -34 -28 -27 27 -26 50 4 50 16 0 26 -7 30 -22z m-1455 -25 l21 -18 -35 -40 c-27 -31 -37 -37 -47 -27 -15 15 -74 16 -84 1 -10 -16 -22 1 -29 43 -8 44 6 55 50 38 23 -9 32 -8 44 5 20 20 54 19 80 -2z m1954 -32 c30 -12 36 -41 13 -60 -8 -7 -34 -11 -58 -9 -41 3 -43 5 -46 36 -2 22 3 41 14 53 15 17 19 17 33 5 9 -8 28 -19 44 -25z m731 14 c13 -20 25 -25 56 -25 41 0 46 -5 31 -29 -10 -16 -97 -34 -124 -25 -11 4 -37 6 -58 6 -38 -1 -66 19 -54 38 3 5 12 10 20 10 8 0 22 9 32 19 10 11 29 21 43 24 14 2 28 5 31 6 4 0 14 -10 23 -24z m2033 -17 c19 -15 16 -46 -4 -56 -11 -5 -33 -4 -58 4 -22 7 -35 13 -28 13 6 1 14 15 18 32 6 27 10 30 33 24 15 -4 33 -11 39 -17z m-3359 -31 c2 -15 -5 -42 -16 -60 -11 -17 -25 -48 -31 -69 -12 -37 -35 -55 -47 -37 -3 6 -22 18 -41 25 -26 12 -34 20 -31 37 2 12 13 26 24 31 12 5 30 25 40 44 18 33 67 65 89 58 6 -1 11 -15 13 -29z m422 16 c4 -4 10 -25 13 -47 l6 -38 -44 7 c-43 6 -46 5 -66 -29 -20 -34 -21 -35 -45 -20 -28 19 -74 11 -74 -12 0 -12 -10 -14 -42 -12 -35 2 -43 7 -48 26 -3 13 -16 29 -29 36 -15 8 -20 16 -13 20 7 4 21 2 32 -4 17 -9 28 -7 54 10 27 16 39 18 58 10 34 -16 102 0 106 25 7 44 11 48 49 42 20 -4 39 -10 43 -14z m-600 -19 c0 -14 -12 -19 -23 -8 -9 9 4 35 14 28 5 -3 9 -12 9 -20z m2166 -19 c19 -40 13 -65 -15 -65 -29 0 -53 28 -45 54 6 17 30 44 41 46 1 0 10 -16 19 -35z m882 24 c-2 -6 -8 -10 -13 -10 -5 0 -11 4 -13 10 -2 6 4 11 13 11 9 0 15 -5 13 -11z m-1040 -44 c11 -14 25 -25 31 -25 10 0 31 -31 31 -47 0 -5 -6 -17 -13 -27 -28 -38 -107 27 -107 88 0 43 29 49 58 11z m1782 -23 c37 -34 40 -40 31 -65 -9 -23 -14 -26 -43 -21 -41 8 -54 21 -61 61 -4 22 -2 37 9 48 9 8 17 15 19 15 2 0 23 -17 45 -38z m-1139 9 c13 -10 34 -21 46 -25 15 -5 23 -16 25 -39 2 -23 9 -33 26 -37 13 -3 24 -9 24 -15 2 -17 -33 -18 -51 -1 -20 18 -123 40 -149 32 -9 -3 -26 -19 -36 -35 -17 -25 -23 -27 -43 -18 -28 13 -29 23 -3 37 11 6 20 21 20 34 0 17 11 31 38 47 70 44 72 45 103 20z m572 -35 c38 -29 -18 -70 -62 -46 -24 12 -41 6 -41 -14 0 -19 -52 -38 -83 -30 -31 7 -34 16 -11 35 9 7 20 23 25 36 9 25 37 30 71 12 16 -9 24 -7 36 5 20 19 41 20 65 2z m877 -2 c11 -13 10 -19 -8 -36 -18 -19 -24 -20 -51 -8 -36 15 -40 37 -8 50 33 13 53 12 67 -6z m-5410 -30 c0 -8 6 -14 13 -14 7 0 23 -11 35 -25 12 -14 33 -25 46 -25 55 0 68 -22 45 -74 -9 -19 -8 -29 5 -47 9 -13 16 -31 16 -41 0 -20 39 -33 70 -25 24 6 38 -12 19 -24 -22 -14 -72 -11 -96 6 -11 8 -24 30 -27 50 -5 27 -12 35 -28 35 -12 0 -36 5 -54 12 -29 10 -33 17 -36 52 -3 36 -6 41 -30 44 -41 5 -51 23 -34 63 8 19 18 37 22 41 9 10 34 -10 34 -28z m490 2 c0 -38 -10 -49 -34 -40 -19 7 -19 14 -6 48 14 39 40 33 40 -8z m155 9 c0 -25 -46 -33 -64 -11 -19 22 -4 38 32 34 24 -2 32 -8 32 -23z m3095 11 c0 -8 -5 -18 -10 -21 -6 -4 -17 -22 -25 -41 -14 -33 -15 -34 -57 -28 -53 8 -51 7 -50 43 0 20 -5 31 -16 34 -11 3 -8 5 8 6 14 1 32 6 40 11 25 16 110 13 110 -4z m930 4 c0 -5 -12 -10 -26 -10 -14 0 -23 4 -19 10 3 6 15 10 26 10 10 0 19 -4 19 -10z m-2510 -15 c0 -8 -9 -19 -20 -25 -18 -9 -20 -8 -20 15 0 18 5 25 20 25 11 0 20 -7 20 -15z m578 -50 c23 -16 51 -25 75 -25 49 0 77 -15 77 -41 0 -11 4 -29 10 -39 9 -16 4 -20 -41 -29 -27 -6 -55 -11 -60 -11 -6 0 -23 -9 -38 -20 l-28 -19 -11 37 c-6 20 -13 52 -17 70 -7 36 -29 42 -45 12 -6 -11 -17 -20 -24 -20 -7 0 -21 -9 -31 -20 -12 -13 -29 -20 -44 -18 -22 3 -26 8 -26 37 0 36 17 61 39 61 8 0 20 7 27 16 33 39 87 43 137 9z m3006 10 c23 -17 21 -21 -17 -30 -22 -6 -27 -4 -27 12 0 35 14 40 44 18z m-1009 -47 c14 -6 25 -16 25 -23 0 -6 11 -21 25 -33 21 -18 24 -26 15 -42 -10 -19 -11 -19 -43 0 -59 36 -100 23 -116 -37 -6 -22 -14 -29 -39 -31 -39 -4 -72 13 -72 37 0 9 16 31 36 47 37 29 59 50 82 78 15 19 51 21 87 4z m453 -4 c18 -12 20 -19 12 -35 -6 -10 -18 -19 -27 -19 -25 0 -51 29 -46 51 6 23 31 25 61 3z m-3368 -23 c0 -19 18 -31 49 -31 24 0 71 -51 71 -77 0 -49 -64 -49 -85 0 -15 33 -79 32 -83 -1 -2 -13 -11 -26 -20 -29 -9 -4 -23 -15 -30 -25 -17 -23 -38 -23 -89 2 -51 24 -56 31 -44 63 8 21 19 27 58 33 26 4 59 15 72 25 13 11 30 19 37 19 7 0 18 9 24 20 14 25 40 26 40 1z m-1950 -16 c0 -15 7 -40 16 -57 15 -29 15 -32 -5 -51 -32 -32 -45 -11 -35 55 5 29 8 59 7 66 0 6 3 12 8 12 5 0 9 -11 9 -25z m730 -37 c0 -13 -3 -33 -6 -46 -6 -19 -11 -22 -35 -17 -19 4 -36 1 -51 -9 -31 -22 -47 -20 -60 9 -9 19 -7 29 7 51 l18 27 27 -33 c29 -35 60 -37 60 -2 0 18 18 42 32 42 4 0 8 -10 8 -22z m558 -45 c5 -31 -16 -67 -31 -55 -7 6 -23 12 -36 14 -33 4 -49 31 -31 53 9 11 26 15 54 13 33 -2 42 -7 44 -25z m2315 -30 c6 -29 -5 -49 -20 -40 -11 7 -4 67 7 67 4 0 10 -12 13 -27z m484 -26 c24 -24 -104 -50 -132 -27 -12 10 -13 16 -3 27 9 11 27 14 70 11 32 -2 61 -7 65 -11z m-2969 -14 c-2 -10 -10 -18 -18 -18 -8 0 -16 8 -18 18 -2 12 3 17 18 17 15 0 20 -5 18 -17z m1097 6 c10 -15 -1 -23 -20 -15 -9 3 -13 10 -10 16 8 13 22 13 30 -1z m506 -36 c15 -41 6 -54 -33 -42 -53 15 -87 11 -147 -18 -79 -37 -121 -45 -147 -28 -17 11 -28 11 -55 2 -49 -17 -59 -26 -59 -48 0 -10 -7 -19 -15 -19 -8 0 -15 6 -15 13 0 8 -11 24 -25 37 -22 21 -27 22 -55 10 -24 -10 -34 -10 -43 -1 -20 20 18 43 49 29 19 -9 28 -8 44 7 11 10 20 26 20 37 0 26 29 22 40 -6 5 -13 14 -27 20 -31 19 -12 54 3 65 27 6 12 23 27 38 32 24 9 31 6 54 -18 25 -27 27 -28 40 -10 7 10 13 22 13 27 0 10 53 5 98 -9 18 -5 24 -2 29 15 4 16 13 21 39 21 28 0 36 -5 45 -27z m527 -3 c27 0 10 -28 -20 -33 -38 -6 -53 4 -44 28 4 12 13 15 29 11 12 -3 28 -6 35 -6z m-464 -63 c16 -11 15 -14 -13 -34 -25 -19 -30 -20 -35 -7 -18 48 8 70 48 41z m-729 -43 c0 -37 -1 -39 -40 -45 -26 -4 -43 -3 -47 5 -15 22 -8 37 21 47 16 6 32 17 35 26 11 28 31 7 31 -33z m883 35 c-2 -6 -8 -10 -13 -10 -5 0 -11 4 -13 10 -2 6 4 11 13 11 9 0 15 -5 13 -11z m-1198 -61 c0 -74 -8 -83 -61 -72 -39 8 -44 13 -50 44 -12 58 5 73 89 79 20 1 22 -3 22 -51z m-1230 6 c0 -33 -33 -30 -38 4 -3 17 2 22 17 22 16 0 21 -6 21 -26z m555 7 c6 -20 -3 -51 -16 -51 -4 0 -15 10 -23 22 -11 16 -13 25 -4 35 15 19 36 16 43 -6z m2659 13 c9 -3 16 -10 16 -14 0 -16 -32 -40 -53 -40 -13 0 -30 -9 -40 -20 -19 -22 -57 -26 -75 -8 -18 18 24 58 60 58 15 0 28 4 28 9 0 8 15 15 42 20 3 0 13 -2 22 -5z m356 -3 c0 -5 12 -14 28 -19 27 -10 27 -10 -9 -11 -41 -1 -109 -26 -109 -40 0 -6 -10 -13 -22 -17 -37 -12 -66 54 -36 84 14 14 148 17 148 3z m-1529 -67 c10 -13 10 -17 -2 -25 -8 -5 -23 -7 -34 -4 -11 2 -28 5 -37 5 -25 0 -22 19 5 30 33 13 53 12 68 -6z m-1601 -3 c0 -17 -17 -21 -51 -14 -33 7 -33 7 -9 14 37 10 60 10 60 0z m218 -32 c-3 -26 -18 -29 -32 -6 -7 10 -5 21 4 32 17 20 33 6 28 -26z m1235 -1 c17 -42 12 -58 -18 -58 -31 0 -52 48 -35 80 17 31 35 24 53 -22z m1058 32 c10 0 19 -4 19 -10 0 -5 -7 -10 -15 -10 -8 0 -15 -7 -15 -15 0 -22 -28 -18 -40 5 -13 24 -4 44 17 36 8 -3 23 -6 34 -6z m-1391 -126 c0 -7 -8 -10 -20 -7 -28 7 -34 21 -19 39 12 14 14 14 26 -2 7 -10 13 -23 13 -30z m560 -35 c0 -16 -31 -38 -45 -33 -18 7 -20 45 -3 62 9 9 16 8 30 -5 10 -9 18 -20 18 -24z m-526 -31 c7 -41 -3 -53 -35 -43 -15 5 -18 10 -10 18 6 6 11 23 11 37 0 56 24 47 34 -12z m-1264 -39 c0 -22 -7 -32 -25 -41 -14 -6 -25 -15 -25 -20 0 -4 -9 -8 -19 -8 -15 0 -21 10 -26 41 -8 48 -2 56 45 61 46 5 50 2 50 -33z m2617 29 c44 -16 37 -32 -15 -36 -36 -3 -42 0 -42 16 0 34 9 37 57 20z m-2451 -45 c17 -23 17 -28 -2 -47 -18 -19 -85 -21 -102 -4 -20 20 -14 35 21 52 42 20 67 20 83 -1z m2882 -9 c29 -8 28 -27 -4 -45 -23 -12 -27 -11 -39 5 -25 34 -5 53 43 40z m-1224 -73 c9 -15 -23 -36 -36 -23 -5 5 -7 15 -4 21 9 13 33 14 40 2z m-1274 -48 c0 -20 -3 -24 -11 -16 -7 7 -9 19 -6 27 10 24 17 19 17 -11z m600 -2 c0 -5 -3 -23 -6 -40 -6 -27 -11 -31 -39 -31 -35 0 -45 13 -45 56 0 22 4 24 45 24 25 0 45 -4 45 -9z m947 -37 c1 -24 -2 -34 -13 -34 -9 0 -14 11 -14 33 0 60 23 61 27 1z m-171 -31 c-5 -12 -10 -13 -18 -5 -8 8 -8 15 3 28 15 18 25 4 15 -23z m-943 -43 c16 -14 -4 -35 -33 -35 -34 0 -55 17 -47 39 5 12 15 14 39 10 18 -4 37 -10 41 -14z m235 -43 c2 -38 7 -47 21 -47 36 0 60 -64 37 -96 -12 -16 -27 -19 -99 -19 l-85 0 14 27 c8 15 28 35 44 43 28 15 30 19 26 64 -2 27 -6 53 -10 59 -7 12 11 22 34 19 10 -2 16 -17 18 -50z m588 -83 c-9 -23 -30 -15 -53 20 -16 25 -19 36 -10 45 14 14 71 -45 63 -65z m-1127 32 c6 -7 25 -16 41 -20 17 -3 30 -12 30 -20 0 -7 7 -16 15 -20 8 -3 15 -13 15 -22 0 -14 -7 -15 -42 -10 -23 4 -45 11 -49 17 -3 5 -19 13 -35 18 -32 8 -42 34 -24 56 16 19 34 19 49 1z m321 -22 c0 -15 -6 -24 -15 -24 -21 0 -30 27 -15 45 16 19 30 10 30 -21z m1680 -8 c0 -17 -24 -28 -45 -20 -29 12 -14 34 22 34 13 0 23 -6 23 -14z m-1800 -106 c0 -20 -22 -26 -54 -14 -30 12 -18 34 19 34 28 0 35 -4 35 -20z m1000 -54 c0 -8 -4 -17 -8 -20 -13 -8 -35 11 -28 23 10 16 36 14 36 -3z m-770 -57 c0 -11 5 -29 10 -40 9 -16 7 -21 -17 -30 -37 -15 -152 -4 -172 16 -14 13 -13 15 7 15 12 0 22 4 22 10 0 6 9 5 24 -1 30 -14 76 -4 76 15 0 19 29 48 41 41 5 -4 9 -15 9 -26z m855 -195 c46 -18 100 -77 91 -99 -3 -8 -17 -15 -31 -15 -20 0 -25 -5 -25 -26 0 -22 -4 -25 -27 -22 -24 3 -29 9 -37 45 -6 28 -17 45 -32 52 -14 6 -24 21 -26 38 -2 21 -8 28 -25 28 -12 0 -25 4 -29 8 -14 14 101 7 141 -9z m470 -24 c0 -16 -6 -26 -18 -28 -19 -4 -32 20 -23 44 9 25 41 13 41 -16z m-649 -7 c-4 -16 -11 -44 -15 -63 -5 -20 -9 -26 -10 -14 0 11 -6 25 -13 32 -29 29 -19 72 18 72 24 0 26 -3 20 -27z m544 -163 c0 -5 -9 -10 -20 -10 -11 0 -20 5 -20 10 0 6 9 10 20 10 11 0 20 -4 20 -10z m-310 -40 c-6 -12 -14 -19 -17 -17 -2 3 1 15 7 27 6 12 14 19 17 17 2 -3 -1 -15 -7 -27z m-190 10 c17 -9 50 -63 50 -82 0 -4 -7 -8 -15 -8 -8 0 -15 4 -15 9 0 5 -13 12 -29 16 -41 9 -68 40 -51 60 14 17 34 19 60 5z m158 -83 c4 -18 -14 -22 -37 -8 -7 5 -10 14 -6 20 10 17 39 9 43 -12z"/>
 <path d="M6944 11335 c0 -55 1 -76 3 -47 2 29 2 74 0 100 -2 26 -3 2 -3 -53z"/>
 <path d="M2597 8254 c-4 -4 -7 -17 -7 -28 0 -12 -9 -27 -20 -34 -23 -14 -25 -28 -8 -82 21 -68 75 -66 76 1 1 22 6 47 13 55 9 11 8 18 -2 31 -8 9 -14 26 -14 37 0 20 -24 33 -38 20z"/>
 <path d="M11502 7769 c-11 -36 -11 -44 2 -57 13 -13 15 -12 20 9 3 13 2 39 -2 57 l-7 33 -13 -42z"/>
 <path d="M3022 7648 c-21 -21 -13 -28 33 -28 47 0 58 12 26 30 -26 13 -44 13 -59 -2z"/>
 <path d="M13169 7633 c-1 -5 -3 -24 -4 -43 -2 -19 -6 -46 -9 -60 -10 -39 7 -54 54 -52 23 2 48 -2 56 -9 11 -9 15 -8 20 6 6 15 -4 29 -30 38 -5 1 -1 18 8 36 10 18 16 34 14 35 -2 1 -18 14 -36 29 -32 26 -70 36 -73 20z"/>
 <path d="M13366 7605 c-12 -19 -14 -30 -6 -44 5 -11 10 -35 10 -53 0 -67 49 -79 79 -20 14 28 17 42 9 56 -5 9 -7 20 -4 24 8 7 -44 62 -60 62 -6 0 -19 -11 -28 -25z"/>
 <path d="M1341 6208 c-56 -10 -70 -22 -42 -37 24 -13 28 -41 6 -41 -14 0 -35 -29 -35 -49 0 -7 24 -11 58 -11 76 0 97 -7 111 -36 14 -31 29 -31 37 2 4 14 17 30 30 34 20 8 24 17 24 47 -1 32 -6 41 -36 61 -47 30 -99 40 -153 30z"/>
 <path d="M11952 5744 c-30 -21 -28 -39 12 -79 27 -29 40 -35 75 -35 22 0 41 5 41 10 0 15 -23 54 -38 63 -7 5 -17 20 -22 33 -11 28 -36 31 -68 8z"/>
 <path d="M10758 3725 c-3 -4 -4 -23 -1 -43 4 -29 0 -41 -16 -56 -15 -14 -19 -26 -14 -50 3 -17 7 -33 9 -35 2 -2 22 15 44 38 39 40 41 45 38 94 -3 47 -5 52 -28 55 -14 2 -28 0 -32 -3z"/>
 <path d="M2482 3598 c4 -27 33 -36 42 -13 8 22 -1 35 -25 35 -15 0 -20 -6 -17 -22z"/>
 <path d="M2605 3610 c-7 -12 2 -30 16 -30 5 0 9 9 9 20 0 21 -15 27 -25 10z"/>
 <path d="M10716 3392 c-3 -5 -2 -22 3 -38 4 -16 6 -44 3 -63 -4 -27 0 -37 19 -52 35 -27 47 -23 55 16 7 37 18 50 49 57 l20 5 -20 7 c-39 14 -50 23 -55 47 -4 18 -14 25 -37 27 -17 2 -34 -1 -37 -6z"/>
 <path d="M9450 2265 c0 -19 -1 -38 -2 -42 -1 -5 6 -9 14 -11 11 -2 20 9 28 32 13 40 7 56 -21 56 -15 0 -19 -7 -19 -35z"/>
 <path d="M6005 1563 c-31 -8 -39 -20 -18 -31 23 -13 73 -4 73 13 0 10 -26 29 -33 24 -1 -1 -11 -3 -22 -6z"/>
 <path d="M6413 1211 c-3 -11 -17 -21 -35 -25 -23 -4 -29 -10 -24 -22 4 -9 1 -22 -5 -30 -8 -9 -7 -23 2 -51 18 -52 28 -62 35 -35 7 24 19 28 30 11 4 -8 12 -2 21 15 9 16 25 29 44 33 22 4 29 11 31 29 0 13 1 28 2 33 1 11 -69 61 -85 61 -6 0 -13 -9 -16 -19z"/>
 </g>

</svg>